<svg width="19" height="20" viewBox="0 0 19 20" fill="none" xmlns="http://www.w3.org/2000/svg">
<path d="M10 10H16" stroke="#31374A" stroke-linecap="round"/>
<path d="M10 5.37117H12.8C12.9105 5.37117 13 5.28163 13 5.17117V4.02813C13 3.91767 13.0895 3.82812 13.2 3.82812H15.5" stroke="#31374A" stroke-linecap="round"/>
<path d="M10 14.6288H12.8C12.9105 14.6288 13 14.7184 13 14.8288V15.9719C13 16.0823 13.0895 16.1719 13.2 16.1719H15" stroke="#31374A" stroke-linecap="round"/>
<path d="M2.5 10.5152C2.5 10.5152 1 10.5152 1 8.45778C1 6.40039 2.5 6.40039 2.5 6.40039" stroke="#31374A" stroke-width="1.5" stroke-linecap="round"/>
<path d="M7 5.62913C7 5.62913 5 5.11479 5 3.57174C5 2.0287 6 1 7.5 1C9 1 9.5 2.54304 9.5 2.54304V17.457C9.5 17.457 9 19 7.5 19C6 19 5 17.9713 5 16.4283C5 14.8852 7 14.3709 7 14.3709" stroke="#31374A" stroke-width="1.5" stroke-linecap="round"/>
<path d="M5 1.77149C4.5 1.77148 3.5 1.77149 3 2.28583C2.5 2.80018 2 3.31453 2 4.34323C2 5.37192 2.5 6.39954 4 6.91497M7 11.5452C6.5 10.0022 4.5 9.4878 3.5 10.0022C2.5 10.5165 1.5 11.5452 1.5 13.6026C1.5 15.66 2.35394 16.9314 3.5 17.7174C4.64606 18.5033 5 18.2317 5 18.2317" stroke="#31374A" stroke-width="1.5" stroke-linecap="round"/>
<ellipse cx="16.5" cy="3.8282" rx="1.5" ry="1.54304" fill="#31374A"/>
<ellipse cx="1.5" cy="1.54304" rx="1.5" ry="1.54304" transform="matrix(1 0 0 -1 15 17.7148)" fill="#31374A"/>
<ellipse cx="17.5" cy="10.0001" rx="1.5" ry="1.54304" fill="#31374A"/>
</svg>
