<svg width="19" height="20" viewBox="0 0 19 20" fill="none" xmlns="http://www.w3.org/2000/svg">
<path d="M16 17V18C16 18.5523 15.5523 19 15 19H6.5C5.94772 19 5.5 18.5523 5.5 18V7.5C5.5 6.94772 5.94772 6.5 6.5 6.5H15C15.5523 6.5 16 6.94772 16 7.5V8" stroke="#F5F5F9" stroke-width="1.5" stroke-linecap="round"/>
<path d="M11.5 1.72217H1.76758C1.21529 1.72217 0.767578 2.16988 0.767578 2.72217V15.0001" stroke="#F5F5F9" stroke-width="1.5" stroke-linecap="round"/>
<path d="M13.4999 4H4.12305C3.57076 4 3.12305 4.44772 3.12305 5L3.1231 17" stroke="#F5F5F9" stroke-width="1.5" stroke-linecap="round"/>
<path d="M18.5 12.5C18.5 13.1961 18.2636 13.8355 17.8663 14.3444C17.3164 15.0487 16.461 15.5 15.5 15.5C14.274 15.5 13.2188 14.7646 12.7533 13.7087C12.5906 13.3396 12.5 12.931 12.5 12.5C12.5 10.8431 13.8431 9.5 15.5 9.5C16.275 9.5 16.9804 9.79323 17.513 10.2756C18.1199 10.8253 18.5 11.6179 18.5 12.5Z" stroke="#F5F5F9"/>
<path d="M7.5 9H12" stroke="#F5F5F9" stroke-linecap="round"/>
<path d="M7.5 11H11" stroke="#F5F5F9" stroke-linecap="round"/>
<path d="M8 17V14.1C8 14.0448 8.04477 14 8.1 14H9.4C9.45523 14 9.5 14.0448 9.5 14.1V15.5M9.5 17V15.5M9.5 15.5H10.9C10.9552 15.5 11 15.5448 11 15.6V17" stroke="#F5F5F9"/>
<path d="M7 17H12" stroke="#F5F5F9" stroke-linecap="round"/>
</svg>
