<svg width="13" height="14" viewBox="0 0 13 14" fill="none" xmlns="http://www.w3.org/2000/svg">
<path d="M7 7.00064H11" stroke="#F5F5F9" stroke-linecap="round"/>
<path d="M7 3.91456H8.8C8.91046 3.91456 9 3.82502 9 3.71456V3.08586C9 2.97541 9.08954 2.88586 9.2 2.88586H10.6667" stroke="#F5F5F9" stroke-linecap="round"/>
<path d="M7 10.0867H8.8C8.91046 10.0867 9 10.1763 9 10.2867V10.9154C9 11.0259 9.08954 11.1154 9.2 11.1154H10.3333" stroke="#F5F5F9" stroke-linecap="round"/>
<path d="M2 7.34362C2 7.34362 1 7.34362 1 5.97203C1 4.60043 2 4.60043 2 4.60043" stroke="#F5F5F9" stroke-linecap="round"/>
<path d="M4.99935 4.08609C4.99935 4.08609 3.66602 3.74319 3.66602 2.71449C3.66602 1.6858 4.33268 1 5.33268 1C6.33268 1 6.66602 2.0287 6.66602 2.0287V11.9713C6.66602 11.9713 6.33268 13 5.33268 13C4.33268 13 3.66602 12.3142 3.66602 11.2855C3.66602 10.2568 4.99935 9.91391 4.99935 9.91391" stroke="#F5F5F9" stroke-linecap="round"/>
<path d="M3.66732 1.51434C3.33398 1.51434 2.66732 1.51434 2.33398 1.85724C2.00065 2.20014 1.66732 2.54304 1.66732 3.22884C1.66732 3.91464 2.00065 4.59971 3.00065 4.94333M5.00065 8.03015C4.66732 7.00146 3.33398 6.65856 2.66732 7.00146C2.00065 7.34435 1.33398 8.03015 1.33398 9.40175C1.33398 10.7733 1.90328 11.621 2.66732 12.1449C3.43136 12.6689 3.66732 12.4878 3.66732 12.4878" stroke="#F5F5F9" stroke-linecap="round"/>
<ellipse cx="11.334" cy="2.88587" rx="1" ry="1.0287" fill="#F5F5F9"/>
<ellipse cx="1" cy="1.0287" rx="1" ry="1.0287" transform="matrix(1 0 0 -1 10.334 12.1441)" fill="#F5F5F9"/>
<ellipse cx="12" cy="7.00065" rx="1" ry="1.0287" fill="#F5F5F9"/>
</svg>
