<svg width="15" height="14" viewBox="0 0 15 14" fill="none" xmlns="http://www.w3.org/2000/svg">
<g clip-path="url(#clip0_610_14002)">
<path d="M13.78 9.39123L9.89001 13.2812C9.74939 13.4217 9.55876 13.5006 9.36001 13.5006C9.16126 13.5006 8.97064 13.4217 8.83001 13.2812L1.11001 5.56123C1.07122 5.52415 1.04121 5.47886 1.02218 5.42869C1.00315 5.37851 0.995574 5.32471 1.00001 5.27123L1.59001 1.44123C1.59483 1.34997 1.63325 1.26371 1.69787 1.19909C1.76249 1.13447 1.84875 1.09605 1.94001 1.09123L5.77001 0.501234C5.82349 0.496795 5.87729 0.504369 5.92747 0.523401C5.97764 0.542433 6.02293 0.572443 6.06001 0.611234L13.78 8.33123C13.9205 8.47186 13.9994 8.66248 13.9994 8.86123C13.9994 9.05998 13.9205 9.25061 13.78 9.39123V9.39123Z" stroke="#F5F5F9" stroke-linecap="round" stroke-linejoin="round"/>
<path d="M4.60999 4.60938C4.88613 4.60938 5.10999 4.38552 5.10999 4.10938C5.10999 3.83323 4.88613 3.60938 4.60999 3.60938C4.33384 3.60938 4.10999 3.83323 4.10999 4.10938C4.10999 4.38552 4.33384 4.60938 4.60999 4.60938Z" stroke="#F5F5F9" stroke-linecap="round" stroke-linejoin="round"/>
</g>
<defs>
<clipPath id="clip0_610_14002">
<rect width="14" height="14" fill="white" transform="translate(0.5)"/>
</clipPath>
</defs>
</svg>
