<svg width="12" height="12" viewBox="0 0 12 12" fill="none" xmlns="http://www.w3.org/2000/svg">
<path d="M8.99951 10.4995V10.4995C8.99983 10.9076 8.66911 11.2386 8.26104 11.2386H1.75928C1.20699 11.2386 0.759277 10.7909 0.759277 10.2386V1.75391C0.759277 1.20162 1.20699 0.753906 1.75928 0.753906H7.99958C8.55198 0.753906 8.99974 1.2018 8.99958 1.75419L8.99951 1.99954" stroke="#F5F5F9" stroke-width="1.5" stroke-linecap="round"/>
<path d="M3 2.5H6" stroke="#F5F5F9" stroke-linecap="round"/>
<path d="M3 5H6" stroke="#F5F5F9" stroke-linecap="round"/>
<path d="M3 7.5H4.5" stroke="#F5F5F9" stroke-linecap="round"/>
<path d="M7 7L8.90509 4.33288C9.23139 3.87606 9.86971 3.77728 10.3188 4.11412L10.7184 4.41379C11.153 4.73973 11.2479 5.35299 10.9321 5.79503L9 8.5M7 7L6.5362 9.31898C6.52063 9.39685 6.59767 9.46093 6.6714 9.43144L9 8.5M7 7L9 8.5" stroke="#F5F5F9" stroke-linecap="round"/>
</svg>
