<svg width="19" height="19" viewBox="0 0 19 19" fill="none" xmlns="http://www.w3.org/2000/svg">
<path d="M4 2C4 3.10457 3.10457 4 2 4C0.895431 4 0 3.10457 0 2C0 0.895431 0.895431 0 2 0C3.10457 0 4 0.895431 4 2Z" fill="#31374A"/>
<path d="M4 17C4 18.1046 3.10457 19 2 19C0.895431 19 0 18.1046 0 17C0 15.8954 0.895431 15 2 15C3.10457 15 4 15.8954 4 17Z" fill="#31374A"/>
<path d="M15 9.5C15 10.6046 15.8954 11.5 17 11.5C18.1046 11.5 19 10.6046 19 9.5C19 8.39543 18.1046 7.5 17 7.5C15.8954 7.5 15 8.39543 15 9.5Z" fill="#31374A"/>
<path d="M2 2H17" stroke="#31374A" stroke-width="1.5" stroke-linecap="round"/>
<path d="M2 17H17" stroke="#31374A" stroke-width="1.5" stroke-linecap="round"/>
<path d="M17 9.5H2" stroke="#31374A" stroke-width="1.5" stroke-linecap="round"/>
</svg>
