<svg width="19" height="19" viewBox="0 0 19 19" fill="none" xmlns="http://www.w3.org/2000/svg">
<mask id="path-1-inside-1_566_113049" fill="white">
<path fill-rule="evenodd" clip-rule="evenodd" d="M4.38477 8.76923C4.38472 8.76923 4.38467 8.76923 4.38461 8.76923C1.96306 8.76923 0 6.80617 0 4.38461C0 1.96306 1.96306 0 4.38461 0C6.80617 0 8.76923 1.96306 8.76923 4.38461C8.76923 4.38462 8.76923 4.38463 8.76923 4.38463H10.2306C10.2306 4.38463 10.2306 4.38462 10.2306 4.38461C10.2306 1.96306 12.1937 0 14.6152 0C17.0368 0 18.9998 1.96306 18.9998 4.38461C18.9998 6.80607 17.0369 8.76906 14.6155 8.76923V10.2307C17.0369 10.231 18.9997 12.1939 18.9997 14.6153C18.9997 17.0369 17.0366 19 14.6151 19C12.1935 19 10.2305 17.0369 10.2305 14.6154H8.76923C8.7692 17.0369 6.80615 19 4.38461 19C1.96306 19 0 17.0369 0 14.6153C0 12.1938 1.96306 10.2307 4.38461 10.2307C4.38467 10.2307 4.38472 10.2307 4.38477 10.2307V8.76923ZM5.38477 8.65465V10.3453C7.00322 10.7229 8.27717 11.9969 8.65469 13.6154H10.345C10.7226 11.9967 11.9968 10.7226 13.6155 10.3452V8.65475C11.9969 8.27729 10.7227 7.00324 10.3452 5.38463H8.65468C8.27713 7.00308 7.00319 8.27705 5.38477 8.65465Z"/>
</mask>
<path d="M4.38477 8.76923H5.88477V7.26923H4.38477V8.76923ZM8.76923 4.38463H7.26923V5.88463H8.76923V4.38463ZM10.2306 4.38463V5.88463H11.7306V4.38463H10.2306ZM14.6155 8.76923L14.6154 7.26923L13.1155 7.26933V8.76923H14.6155ZM14.6155 10.2307H13.1155V11.7306L14.6154 11.7307L14.6155 10.2307ZM10.2305 14.6154L11.7305 14.6154L11.7305 13.1154H10.2305V14.6154ZM8.76923 14.6154V13.1154H7.26925L7.26923 14.6154L8.76923 14.6154ZM4.38477 10.2307V11.7307H5.88477V10.2307H4.38477ZM5.38477 8.65465L5.04395 7.19388L3.88477 7.46433V8.65465H5.38477ZM5.38477 10.3453H3.88477V11.5356L5.04395 11.8061L5.38477 10.3453ZM8.65469 13.6154L7.19391 13.9561L7.46431 15.1154H8.65469V13.6154ZM10.345 13.6154V15.1154H11.5354L11.8058 13.9561L10.345 13.6154ZM13.6155 10.3452L13.9561 11.806L15.1155 11.5357V10.3452H13.6155ZM13.6155 8.65475H15.1155V7.4643L13.9562 7.19395L13.6155 8.65475ZM10.3452 5.38463L11.8059 5.04387L11.5355 3.88463H10.3452V5.38463ZM8.65468 5.38463V3.88463H7.46432L7.1939 5.04387L8.65468 5.38463ZM4.38461 10.2692C4.38461 10.2692 4.38461 10.2692 4.38462 10.2692H4.38462C4.38462 10.2692 4.38462 10.2692 4.38462 10.2692C4.38462 10.2692 4.38462 10.2692 4.38462 10.2692C4.38462 10.2692 4.38462 10.2692 4.38462 10.2692C4.38462 10.2692 4.38462 10.2692 4.38462 10.2692H4.38462C4.38462 10.2692 4.38462 10.2692 4.38462 10.2692C4.38462 10.2692 4.38462 10.2692 4.38462 10.2692H4.38462C4.38462 10.2692 4.38462 10.2692 4.38462 10.2692C4.38462 10.2692 4.38462 10.2692 4.38462 10.2692C4.38462 10.2692 4.38462 10.2692 4.38462 10.2692C4.38462 10.2692 4.38462 10.2692 4.38462 10.2692H4.38462C4.38462 10.2692 4.38462 10.2692 4.38462 10.2692C4.38462 10.2692 4.38462 10.2692 4.38462 10.2692H4.38462C4.38462 10.2692 4.38462 10.2692 4.38462 10.2692C4.38462 10.2692 4.38462 10.2692 4.38462 10.2692C4.38462 10.2692 4.38462 10.2692 4.38462 10.2692C4.38462 10.2692 4.38462 10.2692 4.38463 10.2692H4.38463C4.38463 10.2692 4.38463 10.2692 4.38463 10.2692C4.38463 10.2692 4.38463 10.2692 4.38463 10.2692H4.38463C4.38463 10.2692 4.38463 10.2692 4.38463 10.2692H4.38463C4.38463 10.2692 4.38463 10.2692 4.38463 10.2692C4.38463 10.2692 4.38463 10.2692 4.38463 10.2692H4.38463C4.38463 10.2692 4.38463 10.2692 4.38463 10.2692C4.38463 10.2692 4.38463 10.2692 4.38463 10.2692H4.38463C4.38463 10.2692 4.38463 10.2692 4.38463 10.2692H4.38463C4.38463 10.2692 4.38463 10.2692 4.38463 10.2692C4.38463 10.2692 4.38463 10.2692 4.38463 10.2692H4.38463C4.38463 10.2692 4.38463 10.2692 4.38463 10.2692C4.38463 10.2692 4.38463 10.2692 4.38463 10.2692H4.38463C4.38463 10.2692 4.38463 10.2692 4.38464 10.2692H4.38464C4.38464 10.2692 4.38464 10.2692 4.38464 10.2692C4.38464 10.2692 4.38464 10.2692 4.38464 10.2692H4.38464C4.38464 10.2692 4.38464 10.2692 4.38464 10.2692C4.38464 10.2692 4.38464 10.2692 4.38464 10.2692H4.38464C4.38464 10.2692 4.38464 10.2692 4.38464 10.2692H4.38464C4.38464 10.2692 4.38464 10.2692 4.38464 10.2692C4.38464 10.2692 4.38464 10.2692 4.38464 10.2692H4.38464C4.38464 10.2692 4.38464 10.2692 4.38464 10.2692C4.38464 10.2692 4.38464 10.2692 4.38464 10.2692C4.38464 10.2692 4.38464 10.2692 4.38464 10.2692C4.38464 10.2692 4.38464 10.2692 4.38464 10.2692H4.38464C4.38464 10.2692 4.38464 10.2692 4.38464 10.2692C4.38464 10.2692 4.38464 10.2692 4.38464 10.2692H4.38464C4.38465 10.2692 4.38465 10.2692 4.38465 10.2692H4.38465C4.38465 10.2692 4.38465 10.2692 4.38465 10.2692C4.38465 10.2692 4.38465 10.2692 4.38465 10.2692H4.38465C4.38465 10.2692 4.38465 10.2692 4.38465 10.2692C4.38465 10.2692 4.38465 10.2692 4.38465 10.2692H4.38465C4.38465 10.2692 4.38465 10.2692 4.38465 10.2692H4.38465C4.38465 10.2692 4.38465 10.2692 4.38465 10.2692C4.38465 10.2692 4.38465 10.2692 4.38465 10.2692H4.38465C4.38465 10.2692 4.38465 10.2692 4.38465 10.2692C4.38465 10.2692 4.38465 10.2692 4.38465 10.2692H4.38465C4.38465 10.2692 4.38465 10.2692 4.38465 10.2692H4.38465C4.38465 10.2692 4.38465 10.2692 4.38465 10.2692C4.38465 10.2692 4.38465 10.2692 4.38465 10.2692H4.38465C4.38466 10.2692 4.38466 10.2692 4.38466 10.2692C4.38466 10.2692 4.38466 10.2692 4.38466 10.2692C4.38466 10.2692 4.38466 10.2692 4.38466 10.2692C4.38466 10.2692 4.38466 10.2692 4.38466 10.2692H4.38466C4.38466 10.2692 4.38466 10.2692 4.38466 10.2692C4.38466 10.2692 4.38466 10.2692 4.38466 10.2692H4.38466C4.38466 10.2692 4.38466 10.2692 4.38466 10.2692H4.38466C4.38466 10.2692 4.38466 10.2692 4.38466 10.2692C4.38466 10.2692 4.38466 10.2692 4.38466 10.2692H4.38466C4.38466 10.2692 4.38466 10.2692 4.38466 10.2692C4.38466 10.2692 4.38466 10.2692 4.38466 10.2692H4.38466C4.38466 10.2692 4.38466 10.2692 4.38466 10.2692H4.38466C4.38466 10.2692 4.38466 10.2692 4.38466 10.2692C4.38466 10.2692 4.38466 10.2692 4.38466 10.2692H4.38467C4.38467 10.2692 4.38467 10.2692 4.38467 10.2692C4.38467 10.2692 4.38467 10.2692 4.38467 10.2692C4.38467 10.2692 4.38467 10.2692 4.38467 10.2692C4.38467 10.2692 4.38467 10.2692 4.38467 10.2692H4.38467C4.38467 10.2692 4.38467 10.2692 4.38467 10.2692C4.38467 10.2692 4.38467 10.2692 4.38467 10.2692H4.38467C4.38467 10.2692 4.38467 10.2692 4.38467 10.2692H4.38467C4.38467 10.2692 4.38467 10.2692 4.38467 10.2692C4.38467 10.2692 4.38467 10.2692 4.38467 10.2692H4.38467C4.38467 10.2692 4.38467 10.2692 4.38467 10.2692C4.38467 10.2692 4.38467 10.2692 4.38467 10.2692C4.38467 10.2692 4.38467 10.2692 4.38467 10.2692C4.38467 10.2692 4.38467 10.2692 4.38467 10.2692H4.38467C4.38467 10.2692 4.38467 10.2692 4.38467 10.2692C4.38467 10.2692 4.38467 10.2692 4.38467 10.2692H4.38468C4.38468 10.2692 4.38468 10.2692 4.38468 10.2692H4.38468C4.38468 10.2692 4.38468 10.2692 4.38468 10.2692C4.38468 10.2692 4.38468 10.2692 4.38468 10.2692H4.38468C4.38468 10.2692 4.38468 10.2692 4.38468 10.2692C4.38468 10.2692 4.38468 10.2692 4.38468 10.2692H4.38468C4.38468 10.2692 4.38468 10.2692 4.38468 10.2692H4.38468C4.38468 10.2692 4.38468 10.2692 4.38468 10.2692C4.38468 10.2692 4.38468 10.2692 4.38468 10.2692H4.38468C4.38468 10.2692 4.38468 10.2692 4.38468 10.2692C4.38468 10.2692 4.38468 10.2692 4.38468 10.2692C4.38468 10.2692 4.38468 10.2692 4.38468 10.2692C4.38468 10.2692 4.38468 10.2692 4.38468 10.2692H4.38468C4.38468 10.2692 4.38468 10.2692 4.38468 10.2692C4.38468 10.2692 4.38468 10.2692 4.38468 10.2692H4.38469C4.38469 10.2692 4.38469 10.2692 4.38469 10.2692H4.38469C4.38469 10.2692 4.38469 10.2692 4.38469 10.2692C4.38469 10.2692 4.38469 10.2692 4.38469 10.2692H4.38469C4.38469 10.2692 4.38469 10.2692 4.38469 10.2692C4.38469 10.2692 4.38469 10.2692 4.38469 10.2692H4.38469C4.38469 10.2692 4.38469 10.2692 4.38469 10.2692H4.38469C4.38469 10.2692 4.38469 10.2692 4.38469 10.2692C4.38469 10.2692 4.38469 10.2692 4.38469 10.2692H4.38469C4.38469 10.2692 4.38469 10.2692 4.38469 10.2692H4.38469C4.38469 10.2692 4.38469 10.2692 4.38469 10.2692C4.38469 10.2692 4.38469 10.2692 4.38469 10.2692H4.38469C4.38469 10.2692 4.38469 10.2692 4.38469 10.2692C4.38469 10.2692 4.38469 10.2692 4.38469 10.2692H4.3847C4.3847 10.2692 4.3847 10.2692 4.3847 10.2692H4.3847C4.3847 10.2692 4.3847 10.2692 4.3847 10.2692C4.3847 10.2692 4.3847 10.2692 4.3847 10.2692H4.3847C4.3847 10.2692 4.3847 10.2692 4.3847 10.2692C4.3847 10.2692 4.3847 10.2692 4.3847 10.2692C4.3847 10.2692 4.3847 10.2692 4.3847 10.2692C4.3847 10.2692 4.3847 10.2692 4.3847 10.2692H4.3847C4.3847 10.2692 4.3847 10.2692 4.3847 10.2692C4.3847 10.2692 4.3847 10.2692 4.3847 10.2692H4.3847C4.3847 10.2692 4.3847 10.2692 4.3847 10.2692H4.3847C4.3847 10.2692 4.3847 10.2692 4.3847 10.2692C4.3847 10.2692 4.3847 10.2692 4.3847 10.2692H4.3847C4.3847 10.2692 4.3847 10.2692 4.3847 10.2692C4.3847 10.2692 4.3847 10.2692 4.3847 10.2692H4.38471C4.38471 10.2692 4.38471 10.2692 4.38471 10.2692H4.38471C4.38471 10.2692 4.38471 10.2692 4.38471 10.2692C4.38471 10.2692 4.38471 10.2692 4.38471 10.2692H4.38471C4.38471 10.2692 4.38471 10.2692 4.38471 10.2692C4.38471 10.2692 4.38471 10.2692 4.38471 10.2692C4.38471 10.2692 4.38471 10.2692 4.38471 10.2692C4.38471 10.2692 4.38471 10.2692 4.38471 10.2692H4.38471C4.38471 10.2692 4.38471 10.2692 4.38471 10.2692C4.38471 10.2692 4.38471 10.2692 4.38471 10.2692H4.38471C4.38471 10.2692 4.38471 10.2692 4.38471 10.2692H4.38471C4.38471 10.2692 4.38471 10.2692 4.38471 10.2692C4.38471 10.2692 4.38471 10.2692 4.38471 10.2692H4.38471C4.38471 10.2692 4.38471 10.2692 4.38471 10.2692C4.38471 10.2692 4.38471 10.2692 4.38471 10.2692C4.38472 10.2692 4.38472 10.2692 4.38472 10.2692C4.38472 10.2692 4.38472 10.2692 4.38472 10.2692H4.38472C4.38472 10.2692 4.38472 10.2692 4.38472 10.2692C4.38472 10.2692 4.38472 10.2692 4.38472 10.2692H4.38472C4.38472 10.2692 4.38472 10.2692 4.38472 10.2692H4.38472C4.38472 10.2692 4.38472 10.2692 4.38472 10.2692C4.38472 10.2692 4.38472 10.2692 4.38472 10.2692H4.38472C4.38472 10.2692 4.38472 10.2692 4.38472 10.2692C4.38472 10.2692 4.38472 10.2692 4.38472 10.2692H4.38472C4.38472 10.2692 4.38472 10.2692 4.38472 10.2692H4.38472C4.38472 10.2692 4.38472 10.2692 4.38472 10.2692C4.38472 10.2692 4.38472 10.2692 4.38472 10.2692H4.38472C4.38472 10.2692 4.38472 10.2692 4.38472 10.2692C4.38472 10.2692 4.38472 10.2692 4.38472 10.2692C4.38473 10.2692 4.38473 10.2692 4.38473 10.2692C4.38473 10.2692 4.38473 10.2692 4.38473 10.2692H4.38473C4.38473 10.2692 4.38473 10.2692 4.38473 10.2692C4.38473 10.2692 4.38473 10.2692 4.38473 10.2692H4.38473C4.38473 10.2692 4.38473 10.2692 4.38473 10.2692H4.38473C4.38473 10.2692 4.38473 10.2692 4.38473 10.2692C4.38473 10.2692 4.38473 10.2692 4.38473 10.2692H4.38473C4.38473 10.2692 4.38473 10.2692 4.38473 10.2692C4.38473 10.2692 4.38473 10.2692 4.38473 10.2692H4.38473C4.38473 10.2692 4.38473 10.2692 4.38473 10.2692H4.38473C4.38473 10.2692 4.38473 10.2692 4.38473 10.2692C4.38473 10.2692 4.38473 10.2692 4.38473 10.2692H4.38473C4.38473 10.2692 4.38473 10.2692 4.38473 10.2692C4.38473 10.2692 4.38473 10.2692 4.38473 10.2692H4.38474C4.38474 10.2692 4.38474 10.2692 4.38474 10.2692H4.38474C4.38474 10.2692 4.38474 10.2692 4.38474 10.2692C4.38474 10.2692 4.38474 10.2692 4.38474 10.2692H4.38474C4.38474 10.2692 4.38474 10.2692 4.38474 10.2692C4.38474 10.2692 4.38474 10.2692 4.38474 10.2692C4.38474 10.2692 4.38474 10.2692 4.38474 10.2692C4.38474 10.2692 4.38474 10.2692 4.38474 10.2692H4.38474C4.38474 10.2692 4.38474 10.2692 4.38474 10.2692C4.38474 10.2692 4.38474 10.2692 4.38474 10.2692H4.38474C4.38474 10.2692 4.38474 10.2692 4.38474 10.2692H4.38474C4.38474 10.2692 4.38474 10.2692 4.38474 10.2692C4.38474 10.2692 4.38474 10.2692 4.38474 10.2692H4.38474C4.38474 10.2692 4.38474 10.2692 4.38474 10.2692C4.38474 10.2692 4.38474 10.2692 4.38474 10.2692H4.38475C4.38475 10.2692 4.38475 10.2692 4.38475 10.2692H4.38475C4.38475 10.2692 4.38475 10.2692 4.38475 10.2692C4.38475 10.2692 4.38475 10.2692 4.38475 10.2692H4.38475C4.38475 10.2692 4.38475 10.2692 4.38475 10.2692C4.38475 10.2692 4.38475 10.2692 4.38475 10.2692H4.38475C4.38475 10.2692 4.38475 10.2692 4.38475 10.2692H4.38475C4.38475 10.2692 4.38475 10.2692 4.38475 10.2692C4.38475 10.2692 4.38475 10.2692 4.38475 10.2692H4.38475C4.38475 10.2692 4.38475 10.2692 4.38475 10.2692C4.38475 10.2692 4.38475 10.2692 4.38475 10.2692H4.38475C4.38475 10.2692 4.38475 10.2692 4.38475 10.2692H4.38475C4.38475 10.2692 4.38475 10.2692 4.38475 10.2692C4.38475 10.2692 4.38475 10.2692 4.38475 10.2692H4.38476C4.38476 10.2692 4.38476 10.2692 4.38476 10.2692C4.38476 10.2692 4.38476 10.2692 4.38476 10.2692C4.38476 10.2692 4.38476 10.2692 4.38476 10.2692C4.38476 10.2692 4.38476 10.2692 4.38476 10.2692H4.38476C4.38476 10.2692 4.38476 10.2692 4.38476 10.2692C4.38476 10.2692 4.38476 10.2692 4.38476 10.2692H4.38476C4.38476 10.2692 4.38476 10.2692 4.38476 10.2692C4.38476 10.2692 4.38476 10.2692 4.38476 10.2692C4.38476 10.2692 4.38476 10.2692 4.38476 10.2692C4.38476 10.2692 4.38476 10.2692 4.38476 10.2692H4.38476C4.38476 10.2692 4.38476 10.2692 4.38476 10.2692C4.38476 10.2692 4.38476 10.2692 4.38476 10.2692H4.38476C4.38476 10.2692 4.38476 10.2692 4.38476 10.2692C4.38476 10.2692 4.38476 10.2692 4.38476 10.2692C4.38476 10.2692 4.38476 10.2692 4.38476 10.2692C4.38476 10.2692 4.38476 10.2692 4.38476 10.2692H4.38477C4.38477 10.2692 4.38477 10.2692 4.38477 10.2692V7.26923C4.38477 7.26923 4.38477 7.26923 4.38477 7.26923H4.38476C4.38476 7.26923 4.38476 7.26923 4.38476 7.26923C4.38476 7.26923 4.38476 7.26923 4.38476 7.26923C4.38476 7.26923 4.38476 7.26923 4.38476 7.26923C4.38476 7.26923 4.38476 7.26923 4.38476 7.26923H4.38476C4.38476 7.26923 4.38476 7.26923 4.38476 7.26923C4.38476 7.26923 4.38476 7.26923 4.38476 7.26923H4.38476C4.38476 7.26923 4.38476 7.26923 4.38476 7.26923C4.38476 7.26923 4.38476 7.26923 4.38476 7.26923C4.38476 7.26923 4.38476 7.26923 4.38476 7.26923C4.38476 7.26923 4.38476 7.26923 4.38476 7.26923H4.38476C4.38476 7.26923 4.38476 7.26923 4.38476 7.26923C4.38476 7.26923 4.38476 7.26923 4.38476 7.26923H4.38476C4.38476 7.26923 4.38476 7.26923 4.38476 7.26923C4.38476 7.26923 4.38476 7.26923 4.38476 7.26923C4.38476 7.26923 4.38476 7.26923 4.38476 7.26923C4.38476 7.26923 4.38476 7.26923 4.38476 7.26923H4.38475C4.38475 7.26923 4.38475 7.26923 4.38475 7.26923C4.38475 7.26923 4.38475 7.26923 4.38475 7.26923H4.38475C4.38475 7.26923 4.38475 7.26923 4.38475 7.26923H4.38475C4.38475 7.26923 4.38475 7.26923 4.38475 7.26923C4.38475 7.26923 4.38475 7.26923 4.38475 7.26923H4.38475C4.38475 7.26923 4.38475 7.26923 4.38475 7.26923C4.38475 7.26923 4.38475 7.26923 4.38475 7.26923H4.38475C4.38475 7.26923 4.38475 7.26923 4.38475 7.26923H4.38475C4.38475 7.26923 4.38475 7.26923 4.38475 7.26923C4.38475 7.26923 4.38475 7.26923 4.38475 7.26923H4.38475C4.38475 7.26923 4.38475 7.26923 4.38475 7.26923C4.38475 7.26923 4.38475 7.26923 4.38475 7.26923H4.38475C4.38475 7.26923 4.38475 7.26923 4.38475 7.26923H4.38474C4.38474 7.26923 4.38474 7.26923 4.38474 7.26923C4.38474 7.26923 4.38474 7.26923 4.38474 7.26923H4.38474C4.38474 7.26923 4.38474 7.26923 4.38474 7.26923C4.38474 7.26923 4.38474 7.26923 4.38474 7.26923H4.38474C4.38474 7.26923 4.38474 7.26923 4.38474 7.26923H4.38474C4.38474 7.26923 4.38474 7.26923 4.38474 7.26923C4.38474 7.26923 4.38474 7.26923 4.38474 7.26923H4.38474C4.38474 7.26923 4.38474 7.26923 4.38474 7.26923C4.38474 7.26923 4.38474 7.26923 4.38474 7.26923C4.38474 7.26923 4.38474 7.26923 4.38474 7.26923C4.38474 7.26923 4.38474 7.26923 4.38474 7.26923H4.38474C4.38474 7.26923 4.38474 7.26923 4.38474 7.26923C4.38474 7.26923 4.38474 7.26923 4.38474 7.26923H4.38474C4.38474 7.26923 4.38474 7.26923 4.38474 7.26923H4.38473C4.38473 7.26923 4.38473 7.26923 4.38473 7.26923C4.38473 7.26923 4.38473 7.26923 4.38473 7.26923H4.38473C4.38473 7.26923 4.38473 7.26923 4.38473 7.26923C4.38473 7.26923 4.38473 7.26923 4.38473 7.26923H4.38473C4.38473 7.26923 4.38473 7.26923 4.38473 7.26923H4.38473C4.38473 7.26923 4.38473 7.26923 4.38473 7.26923C4.38473 7.26923 4.38473 7.26923 4.38473 7.26923H4.38473C4.38473 7.26923 4.38473 7.26923 4.38473 7.26923C4.38473 7.26923 4.38473 7.26923 4.38473 7.26923H4.38473C4.38473 7.26923 4.38473 7.26923 4.38473 7.26923H4.38473C4.38473 7.26923 4.38473 7.26923 4.38473 7.26923C4.38473 7.26923 4.38473 7.26923 4.38473 7.26923H4.38473C4.38473 7.26923 4.38473 7.26923 4.38473 7.26923C4.38473 7.26923 4.38473 7.26923 4.38472 7.26923C4.38472 7.26923 4.38472 7.26923 4.38472 7.26923C4.38472 7.26923 4.38472 7.26923 4.38472 7.26923H4.38472C4.38472 7.26923 4.38472 7.26923 4.38472 7.26923C4.38472 7.26923 4.38472 7.26923 4.38472 7.26923H4.38472C4.38472 7.26923 4.38472 7.26923 4.38472 7.26923H4.38472C4.38472 7.26923 4.38472 7.26923 4.38472 7.26923C4.38472 7.26923 4.38472 7.26923 4.38472 7.26923H4.38472C4.38472 7.26923 4.38472 7.26923 4.38472 7.26923C4.38472 7.26923 4.38472 7.26923 4.38472 7.26923H4.38472C4.38472 7.26923 4.38472 7.26923 4.38472 7.26923H4.38472C4.38472 7.26923 4.38472 7.26923 4.38472 7.26923C4.38472 7.26923 4.38472 7.26923 4.38472 7.26923H4.38472C4.38472 7.26923 4.38472 7.26923 4.38472 7.26923C4.38472 7.26923 4.38472 7.26923 4.38471 7.26923C4.38471 7.26923 4.38471 7.26923 4.38471 7.26923C4.38471 7.26923 4.38471 7.26923 4.38471 7.26923H4.38471C4.38471 7.26923 4.38471 7.26923 4.38471 7.26923C4.38471 7.26923 4.38471 7.26923 4.38471 7.26923H4.38471C4.38471 7.26923 4.38471 7.26923 4.38471 7.26923H4.38471C4.38471 7.26923 4.38471 7.26923 4.38471 7.26923C4.38471 7.26923 4.38471 7.26923 4.38471 7.26923H4.38471C4.38471 7.26923 4.38471 7.26923 4.38471 7.26923C4.38471 7.26923 4.38471 7.26923 4.38471 7.26923C4.38471 7.26923 4.38471 7.26923 4.38471 7.26923C4.38471 7.26923 4.38471 7.26923 4.38471 7.26923H4.38471C4.38471 7.26923 4.38471 7.26923 4.38471 7.26923C4.38471 7.26923 4.38471 7.26923 4.38471 7.26923H4.38471C4.38471 7.26923 4.38471 7.26923 4.38471 7.26923H4.3847C4.3847 7.26923 4.3847 7.26923 4.3847 7.26923C4.3847 7.26923 4.3847 7.26923 4.3847 7.26923H4.3847C4.3847 7.26923 4.3847 7.26923 4.3847 7.26923C4.3847 7.26923 4.3847 7.26923 4.3847 7.26923H4.3847C4.3847 7.26923 4.3847 7.26923 4.3847 7.26923H4.3847C4.3847 7.26923 4.3847 7.26923 4.3847 7.26923C4.3847 7.26923 4.3847 7.26923 4.3847 7.26923H4.3847C4.3847 7.26923 4.3847 7.26923 4.3847 7.26923C4.3847 7.26923 4.3847 7.26923 4.3847 7.26923C4.3847 7.26923 4.3847 7.26923 4.3847 7.26923C4.3847 7.26923 4.3847 7.26923 4.3847 7.26923H4.3847C4.3847 7.26923 4.3847 7.26923 4.3847 7.26923C4.3847 7.26923 4.3847 7.26923 4.3847 7.26923H4.3847C4.3847 7.26923 4.3847 7.26923 4.3847 7.26923H4.38469C4.38469 7.26923 4.38469 7.26923 4.38469 7.26923C4.38469 7.26923 4.38469 7.26923 4.38469 7.26923H4.38469C4.38469 7.26923 4.38469 7.26923 4.38469 7.26923C4.38469 7.26923 4.38469 7.26923 4.38469 7.26923H4.38469C4.38469 7.26923 4.38469 7.26923 4.38469 7.26923H4.38469C4.38469 7.26923 4.38469 7.26923 4.38469 7.26923C4.38469 7.26923 4.38469 7.26923 4.38469 7.26923H4.38469C4.38469 7.26923 4.38469 7.26923 4.38469 7.26923H4.38469C4.38469 7.26923 4.38469 7.26923 4.38469 7.26923C4.38469 7.26923 4.38469 7.26923 4.38469 7.26923H4.38469C4.38469 7.26923 4.38469 7.26923 4.38469 7.26923C4.38469 7.26923 4.38469 7.26923 4.38469 7.26923H4.38469C4.38469 7.26923 4.38469 7.26923 4.38469 7.26923H4.38468C4.38468 7.26923 4.38468 7.26923 4.38468 7.26923C4.38468 7.26923 4.38468 7.26923 4.38468 7.26923H4.38468C4.38468 7.26923 4.38468 7.26923 4.38468 7.26923C4.38468 7.26923 4.38468 7.26923 4.38468 7.26923C4.38468 7.26923 4.38468 7.26923 4.38468 7.26923C4.38468 7.26923 4.38468 7.26923 4.38468 7.26923H4.38468C4.38468 7.26923 4.38468 7.26923 4.38468 7.26923C4.38468 7.26923 4.38468 7.26923 4.38468 7.26923H4.38468C4.38468 7.26923 4.38468 7.26923 4.38468 7.26923H4.38468C4.38468 7.26923 4.38468 7.26923 4.38468 7.26923C4.38468 7.26923 4.38468 7.26923 4.38468 7.26923H4.38468C4.38468 7.26923 4.38468 7.26923 4.38468 7.26923C4.38468 7.26923 4.38468 7.26923 4.38468 7.26923H4.38468C4.38468 7.26923 4.38468 7.26923 4.38468 7.26923H4.38467C4.38467 7.26923 4.38467 7.26923 4.38467 7.26923C4.38467 7.26923 4.38467 7.26923 4.38467 7.26923H4.38467C4.38467 7.26923 4.38467 7.26923 4.38467 7.26923C4.38467 7.26923 4.38467 7.26923 4.38467 7.26923C4.38467 7.26923 4.38467 7.26923 4.38467 7.26923C4.38467 7.26923 4.38467 7.26923 4.38467 7.26923H4.38467C4.38467 7.26923 4.38467 7.26923 4.38467 7.26923C4.38467 7.26923 4.38467 7.26923 4.38467 7.26923H4.38467C4.38467 7.26923 4.38467 7.26923 4.38467 7.26923H4.38467C4.38467 7.26923 4.38467 7.26923 4.38467 7.26923C4.38467 7.26923 4.38467 7.26923 4.38467 7.26923H4.38467C4.38467 7.26923 4.38467 7.26923 4.38467 7.26923C4.38467 7.26923 4.38467 7.26923 4.38467 7.26923C4.38467 7.26923 4.38467 7.26923 4.38467 7.26923C4.38467 7.26923 4.38467 7.26923 4.38467 7.26923H4.38466C4.38466 7.26923 4.38466 7.26923 4.38466 7.26923C4.38466 7.26923 4.38466 7.26923 4.38466 7.26923H4.38466C4.38466 7.26923 4.38466 7.26923 4.38466 7.26923H4.38466C4.38466 7.26923 4.38466 7.26923 4.38466 7.26923C4.38466 7.26923 4.38466 7.26923 4.38466 7.26923H4.38466C4.38466 7.26923 4.38466 7.26923 4.38466 7.26923C4.38466 7.26923 4.38466 7.26923 4.38466 7.26923H4.38466C4.38466 7.26923 4.38466 7.26923 4.38466 7.26923H4.38466C4.38466 7.26923 4.38466 7.26923 4.38466 7.26923C4.38466 7.26923 4.38466 7.26923 4.38466 7.26923H4.38466C4.38466 7.26923 4.38466 7.26923 4.38466 7.26923C4.38466 7.26923 4.38466 7.26923 4.38466 7.26923C4.38466 7.26923 4.38466 7.26923 4.38466 7.26923C4.38466 7.26923 4.38466 7.26923 4.38465 7.26923H4.38465C4.38465 7.26923 4.38465 7.26923 4.38465 7.26923C4.38465 7.26923 4.38465 7.26923 4.38465 7.26923H4.38465C4.38465 7.26923 4.38465 7.26923 4.38465 7.26923H4.38465C4.38465 7.26923 4.38465 7.26923 4.38465 7.26923C4.38465 7.26923 4.38465 7.26923 4.38465 7.26923H4.38465C4.38465 7.26923 4.38465 7.26923 4.38465 7.26923C4.38465 7.26923 4.38465 7.26923 4.38465 7.26923H4.38465C4.38465 7.26923 4.38465 7.26923 4.38465 7.26923H4.38465C4.38465 7.26923 4.38465 7.26923 4.38465 7.26923C4.38465 7.26923 4.38465 7.26923 4.38465 7.26923H4.38465C4.38465 7.26923 4.38465 7.26923 4.38465 7.26923C4.38465 7.26923 4.38465 7.26923 4.38465 7.26923H4.38465C4.38465 7.26923 4.38465 7.26923 4.38464 7.26923H4.38464C4.38464 7.26923 4.38464 7.26923 4.38464 7.26923C4.38464 7.26923 4.38464 7.26923 4.38464 7.26923H4.38464C4.38464 7.26923 4.38464 7.26923 4.38464 7.26923C4.38464 7.26923 4.38464 7.26923 4.38464 7.26923C4.38464 7.26923 4.38464 7.26923 4.38464 7.26923C4.38464 7.26923 4.38464 7.26923 4.38464 7.26923H4.38464C4.38464 7.26923 4.38464 7.26923 4.38464 7.26923C4.38464 7.26923 4.38464 7.26923 4.38464 7.26923H4.38464C4.38464 7.26923 4.38464 7.26923 4.38464 7.26923H4.38464C4.38464 7.26923 4.38464 7.26923 4.38464 7.26923C4.38464 7.26923 4.38464 7.26923 4.38464 7.26923H4.38464C4.38464 7.26923 4.38464 7.26923 4.38464 7.26923C4.38464 7.26923 4.38464 7.26923 4.38464 7.26923H4.38464C4.38463 7.26923 4.38463 7.26923 4.38463 7.26923H4.38463C4.38463 7.26923 4.38463 7.26923 4.38463 7.26923C4.38463 7.26923 4.38463 7.26923 4.38463 7.26923H4.38463C4.38463 7.26923 4.38463 7.26923 4.38463 7.26923C4.38463 7.26923 4.38463 7.26923 4.38463 7.26923H4.38463C4.38463 7.26923 4.38463 7.26923 4.38463 7.26923H4.38463C4.38463 7.26923 4.38463 7.26923 4.38463 7.26923C4.38463 7.26923 4.38463 7.26923 4.38463 7.26923H4.38463C4.38463 7.26923 4.38463 7.26923 4.38463 7.26923C4.38463 7.26923 4.38463 7.26923 4.38463 7.26923H4.38463C4.38463 7.26923 4.38463 7.26923 4.38463 7.26923H4.38463C4.38463 7.26923 4.38463 7.26923 4.38463 7.26923C4.38463 7.26923 4.38463 7.26923 4.38463 7.26923H4.38463C4.38462 7.26923 4.38462 7.26923 4.38462 7.26923C4.38462 7.26923 4.38462 7.26923 4.38462 7.26923C4.38462 7.26923 4.38462 7.26923 4.38462 7.26923C4.38462 7.26923 4.38462 7.26923 4.38462 7.26923H4.38462C4.38462 7.26923 4.38462 7.26923 4.38462 7.26923C4.38462 7.26923 4.38462 7.26923 4.38462 7.26923H4.38462C4.38462 7.26923 4.38462 7.26923 4.38462 7.26923C4.38462 7.26923 4.38462 7.26923 4.38462 7.26923C4.38462 7.26923 4.38462 7.26923 4.38462 7.26923C4.38462 7.26923 4.38462 7.26923 4.38462 7.26923H4.38462C4.38462 7.26923 4.38462 7.26923 4.38462 7.26923C4.38462 7.26923 4.38462 7.26923 4.38462 7.26923H4.38462C4.38462 7.26923 4.38462 7.26923 4.38462 7.26923C4.38462 7.26923 4.38462 7.26923 4.38462 7.26923C4.38462 7.26923 4.38462 7.26923 4.38462 7.26923C4.38462 7.26923 4.38462 7.26923 4.38462 7.26923H4.38462C4.38461 7.26923 4.38461 7.26923 4.38461 7.26923V10.2692ZM-1.5 4.38461C-1.5 7.6346 1.13463 10.2692 4.38461 10.2692V7.26923C2.79149 7.26923 1.5 5.97774 1.5 4.38461H-1.5ZM4.38461 -1.5C1.13463 -1.5 -1.5 1.13463 -1.5 4.38461H1.5C1.5 2.79149 2.79149 1.5 4.38461 1.5V-1.5ZM10.2692 4.38461C10.2692 1.13463 7.6346 -1.5 4.38461 -1.5V1.5C5.97774 1.5 7.26923 2.79149 7.26923 4.38461H10.2692ZM10.2692 4.38463C10.2692 4.38463 10.2692 4.38463 10.2692 4.38463C10.2692 4.38463 10.2692 4.38463 10.2692 4.38463V4.38463V4.38463V4.38463V4.38463V4.38463V4.38463V4.38463C10.2692 4.38463 10.2692 4.38463 10.2692 4.38463C10.2692 4.38463 10.2692 4.38463 10.2692 4.38463C10.2692 4.38463 10.2692 4.38463 10.2692 4.38463C10.2692 4.38463 10.2692 4.38463 10.2692 4.38463C10.2692 4.38463 10.2692 4.38463 10.2692 4.38463V4.38463C10.2692 4.38463 10.2692 4.38463 10.2692 4.38463C10.2692 4.38463 10.2692 4.38463 10.2692 4.38463C10.2692 4.38463 10.2692 4.38463 10.2692 4.38463C10.2692 4.38463 10.2692 4.38463 10.2692 4.38463V4.38463C10.2692 4.38462 10.2692 4.38462 10.2692 4.38462C10.2692 4.38462 10.2692 4.38462 10.2692 4.38462C10.2692 4.38462 10.2692 4.38462 10.2692 4.38462V4.38462C10.2692 4.38462 10.2692 4.38462 10.2692 4.38462C10.2692 4.38462 10.2692 4.38462 10.2692 4.38462C10.2692 4.38462 10.2692 4.38462 10.2692 4.38462C10.2692 4.38462 10.2692 4.38462 10.2692 4.38462V4.38462C10.2692 4.38462 10.2692 4.38462 10.2692 4.38462C10.2692 4.38462 10.2692 4.38462 10.2692 4.38462C10.2692 4.38462 10.2692 4.38462 10.2692 4.38462C10.2692 4.38462 10.2692 4.38462 10.2692 4.38462C10.2692 4.38462 10.2692 4.38462 10.2692 4.38462V4.38462V4.38462V4.38462V4.38462V4.38462V4.38462V4.38462C10.2692 4.38462 10.2692 4.38462 10.2692 4.38461C10.2692 4.38461 10.2692 4.38461 10.2692 4.38461H7.26923C7.26923 4.38461 7.26923 4.38461 7.26923 4.38461C7.26923 4.38462 7.26923 4.38462 7.26923 4.38462V4.38462V4.38462V4.38462V4.38462V4.38462V4.38462V4.38462C7.26923 4.38462 7.26923 4.38462 7.26923 4.38462C7.26923 4.38462 7.26923 4.38462 7.26923 4.38462C7.26923 4.38462 7.26923 4.38462 7.26923 4.38462C7.26923 4.38462 7.26923 4.38462 7.26923 4.38462C7.26923 4.38462 7.26923 4.38462 7.26923 4.38462V4.38462C7.26923 4.38462 7.26923 4.38462 7.26923 4.38462C7.26923 4.38462 7.26923 4.38462 7.26923 4.38462C7.26923 4.38462 7.26923 4.38462 7.26923 4.38462C7.26923 4.38462 7.26923 4.38462 7.26923 4.38462V4.38462C7.26923 4.38462 7.26923 4.38462 7.26923 4.38462C7.26923 4.38462 7.26923 4.38462 7.26923 4.38462C7.26923 4.38462 7.26923 4.38462 7.26923 4.38463V4.38463C7.26923 4.38463 7.26923 4.38463 7.26923 4.38463C7.26923 4.38463 7.26923 4.38463 7.26923 4.38463C7.26923 4.38463 7.26923 4.38463 7.26923 4.38463C7.26923 4.38463 7.26923 4.38463 7.26923 4.38463V4.38463C7.26923 4.38463 7.26923 4.38463 7.26923 4.38463C7.26923 4.38463 7.26923 4.38463 7.26923 4.38463C7.26923 4.38463 7.26923 4.38463 7.26923 4.38463C7.26923 4.38463 7.26923 4.38463 7.26923 4.38463C7.26923 4.38463 7.26923 4.38463 7.26923 4.38463V4.38463V4.38463V4.38463V4.38463V4.38463V4.38463V4.38463C7.26923 4.38463 7.26923 4.38463 7.26923 4.38463C7.26923 4.38463 7.26923 4.38463 7.26923 4.38463H10.2692ZM10.2306 2.88463H8.76923V5.88463H10.2306V2.88463ZM11.7306 4.38463C11.7306 4.38463 11.7306 4.38463 11.7306 4.38463C11.7306 4.38463 11.7306 4.38463 11.7306 4.38463V4.38463V4.38463C11.7306 4.38463 11.7306 4.38463 11.7306 4.38463C11.7306 4.38463 11.7306 4.38463 11.7306 4.38463C11.7306 4.38463 11.7306 4.38463 11.7306 4.38463V4.38463V4.38463C11.7306 4.38463 11.7306 4.38463 11.7306 4.38463C11.7306 4.38463 11.7306 4.38463 11.7306 4.38463C11.7306 4.38463 11.7306 4.38463 11.7306 4.38463V4.38463V4.38463C11.7306 4.38463 11.7306 4.38463 11.7306 4.38463C11.7306 4.38463 11.7306 4.38463 11.7306 4.38463C11.7306 4.38463 11.7306 4.38463 11.7306 4.38463C11.7306 4.38463 11.7306 4.38463 11.7306 4.38463V4.38463C11.7306 4.38463 11.7306 4.38463 11.7306 4.38463C11.7306 4.38463 11.7306 4.38463 11.7306 4.38462C11.7306 4.38462 11.7306 4.38462 11.7306 4.38462C11.7306 4.38462 11.7306 4.38462 11.7306 4.38462V4.38462C11.7306 4.38462 11.7306 4.38462 11.7306 4.38462C11.7306 4.38462 11.7306 4.38462 11.7306 4.38462C11.7306 4.38462 11.7306 4.38462 11.7306 4.38462C11.7306 4.38462 11.7306 4.38462 11.7306 4.38462V4.38462V4.38462C11.7306 4.38462 11.7306 4.38462 11.7306 4.38462C11.7306 4.38462 11.7306 4.38462 11.7306 4.38462C11.7306 4.38462 11.7306 4.38462 11.7306 4.38462V4.38462V4.38462C11.7306 4.38462 11.7306 4.38462 11.7306 4.38462C11.7306 4.38462 11.7306 4.38462 11.7306 4.38462C11.7306 4.38462 11.7306 4.38462 11.7306 4.38462V4.38462V4.38462C11.7306 4.38462 11.7306 4.38462 11.7306 4.38462C11.7306 4.38462 11.7306 4.38462 11.7306 4.38461H8.73061C8.73061 4.38462 8.73061 4.38462 8.73061 4.38462C8.73061 4.38462 8.73061 4.38462 8.73061 4.38462V4.38462V4.38462C8.73061 4.38462 8.73061 4.38462 8.73061 4.38462C8.73061 4.38462 8.73061 4.38462 8.73061 4.38462C8.73061 4.38462 8.73061 4.38462 8.73061 4.38462V4.38462V4.38462C8.73061 4.38462 8.73061 4.38462 8.73061 4.38462C8.73061 4.38462 8.73061 4.38462 8.73061 4.38462C8.73061 4.38462 8.73061 4.38462 8.73061 4.38462V4.38462V4.38462C8.73061 4.38462 8.73061 4.38462 8.73061 4.38462C8.73061 4.38462 8.73061 4.38462 8.73061 4.38462C8.73061 4.38462 8.73061 4.38462 8.73061 4.38462C8.73061 4.38462 8.73061 4.38462 8.73061 4.38462V4.38462C8.73061 4.38462 8.73061 4.38462 8.73061 4.38462C8.73061 4.38462 8.73061 4.38462 8.73061 4.38462C8.73061 4.38463 8.73061 4.38463 8.73061 4.38463C8.73061 4.38463 8.73061 4.38463 8.73061 4.38463V4.38463C8.73061 4.38463 8.73061 4.38463 8.73061 4.38463C8.73061 4.38463 8.73061 4.38463 8.73061 4.38463C8.73061 4.38463 8.73061 4.38463 8.73061 4.38463C8.73061 4.38463 8.73061 4.38463 8.73061 4.38463V4.38463V4.38463C8.73061 4.38463 8.73061 4.38463 8.73061 4.38463C8.73061 4.38463 8.73061 4.38463 8.73061 4.38463C8.73061 4.38463 8.73061 4.38463 8.73061 4.38463V4.38463V4.38463C8.73061 4.38463 8.73061 4.38463 8.73061 4.38463C8.73061 4.38463 8.73061 4.38463 8.73061 4.38463C8.73061 4.38463 8.73061 4.38463 8.73061 4.38463V4.38463V4.38463C8.73061 4.38463 8.73061 4.38463 8.73061 4.38463C8.73061 4.38463 8.73061 4.38463 8.73061 4.38463H11.7306ZM11.7306 4.38461C11.7306 2.79149 13.0221 1.5 14.6152 1.5V-1.5C11.3652 -1.5 8.73061 1.13463 8.73061 4.38461H11.7306ZM14.6152 1.5C16.2084 1.5 17.4998 2.79149 17.4998 4.38461H20.4998C20.4998 1.13463 17.8652 -1.5 14.6152 -1.5V1.5ZM17.4998 4.38461C17.4998 5.97768 16.2085 7.26912 14.6154 7.26923L14.6156 10.2692C17.8654 10.269 20.4998 7.63446 20.4998 4.38461H17.4998ZM16.1155 10.2307V8.76923H13.1155V10.2307H16.1155ZM20.4997 14.6153C20.4997 11.3656 17.8654 8.73106 14.6157 8.73073L14.6154 11.7307C16.2084 11.7309 17.4997 13.0223 17.4997 14.6153H20.4997ZM14.6151 20.5C17.8651 20.5 20.4997 17.8653 20.4997 14.6153H17.4997C17.4997 16.2085 16.2082 17.5 14.6151 17.5V20.5ZM8.73047 14.6154C8.73051 17.8654 11.3651 20.5 14.6151 20.5V17.5C13.022 17.5 11.7305 16.2085 11.7305 14.6154L8.73047 14.6154ZM8.76923 16.1154H10.2305V13.1154H8.76923V16.1154ZM4.38461 20.5C7.63457 20.5 10.2692 17.8654 10.2692 14.6154L7.26923 14.6154C7.26921 16.2085 5.97773 17.5 4.38461 17.5V20.5ZM-1.5 14.6153C-1.5 17.8653 1.13463 20.5 4.38461 20.5V17.5C2.79149 17.5 1.5 16.2085 1.5 14.6153H-1.5ZM4.38461 8.73073C1.13463 8.73073 -1.5 11.3654 -1.5 14.6153H1.5C1.5 13.0222 2.79149 11.7307 4.38461 11.7307V8.73073ZM4.38477 8.73073C4.38477 8.73073 4.38477 8.73073 4.38477 8.73073H4.38476C4.38476 8.73073 4.38476 8.73073 4.38476 8.73073C4.38476 8.73073 4.38476 8.73073 4.38476 8.73073C4.38476 8.73073 4.38476 8.73073 4.38476 8.73073C4.38476 8.73073 4.38476 8.73073 4.38476 8.73073H4.38476C4.38476 8.73073 4.38476 8.73073 4.38476 8.73073C4.38476 8.73073 4.38476 8.73073 4.38476 8.73073H4.38476C4.38476 8.73073 4.38476 8.73073 4.38476 8.73073C4.38476 8.73073 4.38476 8.73073 4.38476 8.73073C4.38476 8.73073 4.38476 8.73073 4.38476 8.73073C4.38476 8.73073 4.38476 8.73073 4.38476 8.73073H4.38476C4.38476 8.73073 4.38476 8.73073 4.38476 8.73073C4.38476 8.73073 4.38476 8.73073 4.38476 8.73073H4.38476C4.38476 8.73073 4.38476 8.73073 4.38476 8.73073C4.38476 8.73073 4.38476 8.73073 4.38476 8.73073C4.38476 8.73073 4.38476 8.73073 4.38476 8.73073C4.38476 8.73073 4.38476 8.73073 4.38476 8.73073H4.38475C4.38475 8.73073 4.38475 8.73073 4.38475 8.73073C4.38475 8.73073 4.38475 8.73073 4.38475 8.73073H4.38475C4.38475 8.73073 4.38475 8.73073 4.38475 8.73073H4.38475C4.38475 8.73073 4.38475 8.73073 4.38475 8.73073C4.38475 8.73073 4.38475 8.73073 4.38475 8.73073H4.38475C4.38475 8.73073 4.38475 8.73073 4.38475 8.73073C4.38475 8.73073 4.38475 8.73073 4.38475 8.73073H4.38475C4.38475 8.73073 4.38475 8.73073 4.38475 8.73073H4.38475C4.38475 8.73073 4.38475 8.73073 4.38475 8.73073C4.38475 8.73073 4.38475 8.73073 4.38475 8.73073H4.38475C4.38475 8.73073 4.38475 8.73073 4.38475 8.73073C4.38475 8.73073 4.38475 8.73073 4.38475 8.73073H4.38475C4.38475 8.73073 4.38475 8.73073 4.38475 8.73073H4.38474C4.38474 8.73073 4.38474 8.73073 4.38474 8.73073C4.38474 8.73073 4.38474 8.73073 4.38474 8.73073H4.38474C4.38474 8.73073 4.38474 8.73073 4.38474 8.73073C4.38474 8.73073 4.38474 8.73073 4.38474 8.73073H4.38474C4.38474 8.73073 4.38474 8.73073 4.38474 8.73073H4.38474C4.38474 8.73073 4.38474 8.73073 4.38474 8.73073C4.38474 8.73073 4.38474 8.73073 4.38474 8.73073H4.38474C4.38474 8.73073 4.38474 8.73073 4.38474 8.73073C4.38474 8.73073 4.38474 8.73073 4.38474 8.73073C4.38474 8.73073 4.38474 8.73073 4.38474 8.73073C4.38474 8.73073 4.38474 8.73073 4.38474 8.73073H4.38474C4.38474 8.73073 4.38474 8.73073 4.38474 8.73073C4.38474 8.73073 4.38474 8.73073 4.38474 8.73073H4.38474C4.38474 8.73073 4.38474 8.73073 4.38474 8.73073H4.38473C4.38473 8.73073 4.38473 8.73073 4.38473 8.73073C4.38473 8.73073 4.38473 8.73073 4.38473 8.73073H4.38473C4.38473 8.73073 4.38473 8.73073 4.38473 8.73073C4.38473 8.73073 4.38473 8.73073 4.38473 8.73073H4.38473C4.38473 8.73073 4.38473 8.73073 4.38473 8.73073H4.38473C4.38473 8.73073 4.38473 8.73073 4.38473 8.73073C4.38473 8.73073 4.38473 8.73073 4.38473 8.73073H4.38473C4.38473 8.73073 4.38473 8.73073 4.38473 8.73073C4.38473 8.73073 4.38473 8.73073 4.38473 8.73073H4.38473C4.38473 8.73073 4.38473 8.73073 4.38473 8.73073H4.38473C4.38473 8.73073 4.38473 8.73073 4.38473 8.73073C4.38473 8.73073 4.38473 8.73073 4.38473 8.73073H4.38473C4.38473 8.73073 4.38473 8.73073 4.38473 8.73073C4.38473 8.73073 4.38473 8.73073 4.38472 8.73073C4.38472 8.73073 4.38472 8.73073 4.38472 8.73073C4.38472 8.73073 4.38472 8.73073 4.38472 8.73073H4.38472C4.38472 8.73073 4.38472 8.73073 4.38472 8.73073C4.38472 8.73073 4.38472 8.73073 4.38472 8.73073H4.38472C4.38472 8.73073 4.38472 8.73073 4.38472 8.73073H4.38472C4.38472 8.73073 4.38472 8.73073 4.38472 8.73073C4.38472 8.73073 4.38472 8.73073 4.38472 8.73073H4.38472C4.38472 8.73073 4.38472 8.73073 4.38472 8.73073C4.38472 8.73073 4.38472 8.73073 4.38472 8.73073H4.38472C4.38472 8.73073 4.38472 8.73073 4.38472 8.73073H4.38472C4.38472 8.73073 4.38472 8.73073 4.38472 8.73073C4.38472 8.73073 4.38472 8.73073 4.38472 8.73073H4.38472C4.38472 8.73073 4.38472 8.73073 4.38472 8.73073C4.38472 8.73073 4.38472 8.73073 4.38471 8.73073C4.38471 8.73073 4.38471 8.73073 4.38471 8.73073C4.38471 8.73073 4.38471 8.73073 4.38471 8.73073H4.38471C4.38471 8.73073 4.38471 8.73073 4.38471 8.73073C4.38471 8.73073 4.38471 8.73073 4.38471 8.73073H4.38471C4.38471 8.73073 4.38471 8.73073 4.38471 8.73073H4.38471C4.38471 8.73073 4.38471 8.73073 4.38471 8.73073C4.38471 8.73073 4.38471 8.73073 4.38471 8.73073H4.38471C4.38471 8.73073 4.38471 8.73073 4.38471 8.73073C4.38471 8.73073 4.38471 8.73073 4.38471 8.73073C4.38471 8.73073 4.38471 8.73073 4.38471 8.73073C4.38471 8.73073 4.38471 8.73073 4.38471 8.73073H4.38471C4.38471 8.73073 4.38471 8.73073 4.38471 8.73073C4.38471 8.73073 4.38471 8.73073 4.38471 8.73073H4.38471C4.38471 8.73073 4.38471 8.73073 4.38471 8.73073H4.3847C4.3847 8.73073 4.3847 8.73073 4.3847 8.73073C4.3847 8.73073 4.3847 8.73073 4.3847 8.73073H4.3847C4.3847 8.73073 4.3847 8.73073 4.3847 8.73073C4.3847 8.73073 4.3847 8.73073 4.3847 8.73073H4.3847C4.3847 8.73073 4.3847 8.73073 4.3847 8.73073H4.3847C4.3847 8.73073 4.3847 8.73073 4.3847 8.73073C4.3847 8.73073 4.3847 8.73073 4.3847 8.73073H4.3847C4.3847 8.73073 4.3847 8.73073 4.3847 8.73073C4.3847 8.73073 4.3847 8.73073 4.3847 8.73073C4.3847 8.73073 4.3847 8.73073 4.3847 8.73073C4.3847 8.73073 4.3847 8.73073 4.3847 8.73073H4.3847C4.3847 8.73073 4.3847 8.73073 4.3847 8.73073C4.3847 8.73073 4.3847 8.73073 4.3847 8.73073H4.3847C4.3847 8.73073 4.3847 8.73073 4.3847 8.73073H4.38469C4.38469 8.73073 4.38469 8.73073 4.38469 8.73073C4.38469 8.73073 4.38469 8.73073 4.38469 8.73073H4.38469C4.38469 8.73073 4.38469 8.73073 4.38469 8.73073C4.38469 8.73073 4.38469 8.73073 4.38469 8.73073H4.38469C4.38469 8.73073 4.38469 8.73073 4.38469 8.73073H4.38469C4.38469 8.73073 4.38469 8.73073 4.38469 8.73073C4.38469 8.73073 4.38469 8.73073 4.38469 8.73073H4.38469C4.38469 8.73073 4.38469 8.73073 4.38469 8.73073H4.38469C4.38469 8.73073 4.38469 8.73073 4.38469 8.73073C4.38469 8.73073 4.38469 8.73073 4.38469 8.73073H4.38469C4.38469 8.73073 4.38469 8.73073 4.38469 8.73073C4.38469 8.73073 4.38469 8.73073 4.38469 8.73073H4.38469C4.38469 8.73073 4.38469 8.73073 4.38469 8.73073H4.38468C4.38468 8.73073 4.38468 8.73073 4.38468 8.73073C4.38468 8.73073 4.38468 8.73073 4.38468 8.73073H4.38468C4.38468 8.73073 4.38468 8.73073 4.38468 8.73073C4.38468 8.73073 4.38468 8.73073 4.38468 8.73073C4.38468 8.73073 4.38468 8.73073 4.38468 8.73073C4.38468 8.73073 4.38468 8.73073 4.38468 8.73073H4.38468C4.38468 8.73073 4.38468 8.73073 4.38468 8.73073C4.38468 8.73073 4.38468 8.73073 4.38468 8.73073H4.38468C4.38468 8.73073 4.38468 8.73073 4.38468 8.73073H4.38468C4.38468 8.73073 4.38468 8.73073 4.38468 8.73073C4.38468 8.73073 4.38468 8.73073 4.38468 8.73073H4.38468C4.38468 8.73073 4.38468 8.73073 4.38468 8.73073C4.38468 8.73073 4.38468 8.73073 4.38468 8.73073H4.38468C4.38468 8.73073 4.38468 8.73073 4.38468 8.73073H4.38467C4.38467 8.73073 4.38467 8.73073 4.38467 8.73073C4.38467 8.73073 4.38467 8.73073 4.38467 8.73073H4.38467C4.38467 8.73073 4.38467 8.73073 4.38467 8.73073C4.38467 8.73073 4.38467 8.73073 4.38467 8.73073C4.38467 8.73073 4.38467 8.73073 4.38467 8.73073C4.38467 8.73073 4.38467 8.73073 4.38467 8.73073H4.38467C4.38467 8.73073 4.38467 8.73073 4.38467 8.73073C4.38467 8.73073 4.38467 8.73073 4.38467 8.73073H4.38467C4.38467 8.73073 4.38467 8.73073 4.38467 8.73073H4.38467C4.38467 8.73073 4.38467 8.73073 4.38467 8.73073C4.38467 8.73073 4.38467 8.73073 4.38467 8.73073H4.38467C4.38467 8.73073 4.38467 8.73073 4.38467 8.73073C4.38467 8.73073 4.38467 8.73073 4.38467 8.73073C4.38467 8.73073 4.38467 8.73073 4.38467 8.73073C4.38467 8.73073 4.38467 8.73073 4.38467 8.73073H4.38466C4.38466 8.73073 4.38466 8.73073 4.38466 8.73073C4.38466 8.73073 4.38466 8.73073 4.38466 8.73073H4.38466C4.38466 8.73073 4.38466 8.73073 4.38466 8.73073H4.38466C4.38466 8.73073 4.38466 8.73073 4.38466 8.73073C4.38466 8.73073 4.38466 8.73073 4.38466 8.73073H4.38466C4.38466 8.73073 4.38466 8.73073 4.38466 8.73073C4.38466 8.73073 4.38466 8.73073 4.38466 8.73073H4.38466C4.38466 8.73073 4.38466 8.73073 4.38466 8.73073H4.38466C4.38466 8.73073 4.38466 8.73073 4.38466 8.73073C4.38466 8.73073 4.38466 8.73073 4.38466 8.73073H4.38466C4.38466 8.73073 4.38466 8.73073 4.38466 8.73073C4.38466 8.73073 4.38466 8.73073 4.38466 8.73073C4.38466 8.73073 4.38466 8.73073 4.38466 8.73073C4.38466 8.73073 4.38466 8.73073 4.38465 8.73073H4.38465C4.38465 8.73073 4.38465 8.73073 4.38465 8.73073C4.38465 8.73073 4.38465 8.73073 4.38465 8.73073H4.38465C4.38465 8.73073 4.38465 8.73073 4.38465 8.73073H4.38465C4.38465 8.73073 4.38465 8.73073 4.38465 8.73073C4.38465 8.73073 4.38465 8.73073 4.38465 8.73073H4.38465C4.38465 8.73073 4.38465 8.73073 4.38465 8.73073C4.38465 8.73073 4.38465 8.73073 4.38465 8.73073H4.38465C4.38465 8.73073 4.38465 8.73073 4.38465 8.73073H4.38465C4.38465 8.73073 4.38465 8.73073 4.38465 8.73073C4.38465 8.73073 4.38465 8.73073 4.38465 8.73073H4.38465C4.38465 8.73073 4.38465 8.73073 4.38465 8.73073C4.38465 8.73073 4.38465 8.73073 4.38465 8.73073H4.38465C4.38465 8.73073 4.38465 8.73073 4.38464 8.73073H4.38464C4.38464 8.73073 4.38464 8.73073 4.38464 8.73073C4.38464 8.73073 4.38464 8.73073 4.38464 8.73073H4.38464C4.38464 8.73073 4.38464 8.73073 4.38464 8.73073C4.38464 8.73073 4.38464 8.73073 4.38464 8.73073C4.38464 8.73073 4.38464 8.73073 4.38464 8.73073C4.38464 8.73073 4.38464 8.73073 4.38464 8.73073H4.38464C4.38464 8.73073 4.38464 8.73073 4.38464 8.73073C4.38464 8.73073 4.38464 8.73073 4.38464 8.73073H4.38464C4.38464 8.73073 4.38464 8.73073 4.38464 8.73073H4.38464C4.38464 8.73073 4.38464 8.73073 4.38464 8.73073C4.38464 8.73073 4.38464 8.73073 4.38464 8.73073H4.38464C4.38464 8.73073 4.38464 8.73073 4.38464 8.73073C4.38464 8.73073 4.38464 8.73073 4.38464 8.73073H4.38464C4.38463 8.73073 4.38463 8.73073 4.38463 8.73073H4.38463C4.38463 8.73073 4.38463 8.73073 4.38463 8.73073C4.38463 8.73073 4.38463 8.73073 4.38463 8.73073H4.38463C4.38463 8.73073 4.38463 8.73073 4.38463 8.73073C4.38463 8.73073 4.38463 8.73073 4.38463 8.73073H4.38463C4.38463 8.73073 4.38463 8.73073 4.38463 8.73073H4.38463C4.38463 8.73073 4.38463 8.73073 4.38463 8.73073C4.38463 8.73073 4.38463 8.73073 4.38463 8.73073H4.38463C4.38463 8.73073 4.38463 8.73073 4.38463 8.73073C4.38463 8.73073 4.38463 8.73073 4.38463 8.73073H4.38463C4.38463 8.73073 4.38463 8.73073 4.38463 8.73073H4.38463C4.38463 8.73073 4.38463 8.73073 4.38463 8.73073C4.38463 8.73073 4.38463 8.73073 4.38463 8.73073H4.38463C4.38462 8.73073 4.38462 8.73073 4.38462 8.73073C4.38462 8.73073 4.38462 8.73073 4.38462 8.73073C4.38462 8.73073 4.38462 8.73073 4.38462 8.73073C4.38462 8.73073 4.38462 8.73073 4.38462 8.73073H4.38462C4.38462 8.73073 4.38462 8.73073 4.38462 8.73073C4.38462 8.73073 4.38462 8.73073 4.38462 8.73073H4.38462C4.38462 8.73073 4.38462 8.73073 4.38462 8.73073C4.38462 8.73073 4.38462 8.73073 4.38462 8.73073C4.38462 8.73073 4.38462 8.73073 4.38462 8.73073C4.38462 8.73073 4.38462 8.73073 4.38462 8.73073H4.38462C4.38462 8.73073 4.38462 8.73073 4.38462 8.73073C4.38462 8.73073 4.38462 8.73073 4.38462 8.73073H4.38462C4.38462 8.73073 4.38462 8.73073 4.38462 8.73073C4.38462 8.73073 4.38462 8.73073 4.38462 8.73073C4.38462 8.73073 4.38462 8.73073 4.38462 8.73073C4.38462 8.73073 4.38462 8.73073 4.38462 8.73073H4.38462C4.38461 8.73073 4.38461 8.73073 4.38461 8.73073V11.7307C4.38461 11.7307 4.38461 11.7307 4.38462 11.7307H4.38462C4.38462 11.7307 4.38462 11.7307 4.38462 11.7307C4.38462 11.7307 4.38462 11.7307 4.38462 11.7307C4.38462 11.7307 4.38462 11.7307 4.38462 11.7307C4.38462 11.7307 4.38462 11.7307 4.38462 11.7307H4.38462C4.38462 11.7307 4.38462 11.7307 4.38462 11.7307C4.38462 11.7307 4.38462 11.7307 4.38462 11.7307H4.38462C4.38462 11.7307 4.38462 11.7307 4.38462 11.7307C4.38462 11.7307 4.38462 11.7307 4.38462 11.7307C4.38462 11.7307 4.38462 11.7307 4.38462 11.7307C4.38462 11.7307 4.38462 11.7307 4.38462 11.7307H4.38462C4.38462 11.7307 4.38462 11.7307 4.38462 11.7307C4.38462 11.7307 4.38462 11.7307 4.38462 11.7307H4.38462C4.38462 11.7307 4.38462 11.7307 4.38462 11.7307C4.38462 11.7307 4.38462 11.7307 4.38462 11.7307C4.38462 11.7307 4.38462 11.7307 4.38462 11.7307C4.38462 11.7307 4.38462 11.7307 4.38463 11.7307H4.38463C4.38463 11.7307 4.38463 11.7307 4.38463 11.7307C4.38463 11.7307 4.38463 11.7307 4.38463 11.7307H4.38463C4.38463 11.7307 4.38463 11.7307 4.38463 11.7307H4.38463C4.38463 11.7307 4.38463 11.7307 4.38463 11.7307C4.38463 11.7307 4.38463 11.7307 4.38463 11.7307H4.38463C4.38463 11.7307 4.38463 11.7307 4.38463 11.7307C4.38463 11.7307 4.38463 11.7307 4.38463 11.7307H4.38463C4.38463 11.7307 4.38463 11.7307 4.38463 11.7307H4.38463C4.38463 11.7307 4.38463 11.7307 4.38463 11.7307C4.38463 11.7307 4.38463 11.7307 4.38463 11.7307H4.38463C4.38463 11.7307 4.38463 11.7307 4.38463 11.7307C4.38463 11.7307 4.38463 11.7307 4.38463 11.7307H4.38463C4.38463 11.7307 4.38463 11.7307 4.38464 11.7307H4.38464C4.38464 11.7307 4.38464 11.7307 4.38464 11.7307C4.38464 11.7307 4.38464 11.7307 4.38464 11.7307H4.38464C4.38464 11.7307 4.38464 11.7307 4.38464 11.7307C4.38464 11.7307 4.38464 11.7307 4.38464 11.7307H4.38464C4.38464 11.7307 4.38464 11.7307 4.38464 11.7307H4.38464C4.38464 11.7307 4.38464 11.7307 4.38464 11.7307C4.38464 11.7307 4.38464 11.7307 4.38464 11.7307H4.38464C4.38464 11.7307 4.38464 11.7307 4.38464 11.7307C4.38464 11.7307 4.38464 11.7307 4.38464 11.7307C4.38464 11.7307 4.38464 11.7307 4.38464 11.7307C4.38464 11.7307 4.38464 11.7307 4.38464 11.7307H4.38464C4.38464 11.7307 4.38464 11.7307 4.38464 11.7307C4.38464 11.7307 4.38464 11.7307 4.38464 11.7307H4.38464C4.38465 11.7307 4.38465 11.7307 4.38465 11.7307H4.38465C4.38465 11.7307 4.38465 11.7307 4.38465 11.7307C4.38465 11.7307 4.38465 11.7307 4.38465 11.7307H4.38465C4.38465 11.7307 4.38465 11.7307 4.38465 11.7307C4.38465 11.7307 4.38465 11.7307 4.38465 11.7307H4.38465C4.38465 11.7307 4.38465 11.7307 4.38465 11.7307H4.38465C4.38465 11.7307 4.38465 11.7307 4.38465 11.7307C4.38465 11.7307 4.38465 11.7307 4.38465 11.7307H4.38465C4.38465 11.7307 4.38465 11.7307 4.38465 11.7307C4.38465 11.7307 4.38465 11.7307 4.38465 11.7307H4.38465C4.38465 11.7307 4.38465 11.7307 4.38465 11.7307H4.38465C4.38465 11.7307 4.38465 11.7307 4.38465 11.7307C4.38465 11.7307 4.38465 11.7307 4.38465 11.7307H4.38465C4.38466 11.7307 4.38466 11.7307 4.38466 11.7307C4.38466 11.7307 4.38466 11.7307 4.38466 11.7307C4.38466 11.7307 4.38466 11.7307 4.38466 11.7307C4.38466 11.7307 4.38466 11.7307 4.38466 11.7307H4.38466C4.38466 11.7307 4.38466 11.7307 4.38466 11.7307C4.38466 11.7307 4.38466 11.7307 4.38466 11.7307H4.38466C4.38466 11.7307 4.38466 11.7307 4.38466 11.7307H4.38466C4.38466 11.7307 4.38466 11.7307 4.38466 11.7307C4.38466 11.7307 4.38466 11.7307 4.38466 11.7307H4.38466C4.38466 11.7307 4.38466 11.7307 4.38466 11.7307C4.38466 11.7307 4.38466 11.7307 4.38466 11.7307H4.38466C4.38466 11.7307 4.38466 11.7307 4.38466 11.7307H4.38466C4.38466 11.7307 4.38466 11.7307 4.38466 11.7307C4.38466 11.7307 4.38466 11.7307 4.38466 11.7307H4.38467C4.38467 11.7307 4.38467 11.7307 4.38467 11.7307C4.38467 11.7307 4.38467 11.7307 4.38467 11.7307C4.38467 11.7307 4.38467 11.7307 4.38467 11.7307C4.38467 11.7307 4.38467 11.7307 4.38467 11.7307H4.38467C4.38467 11.7307 4.38467 11.7307 4.38467 11.7307C4.38467 11.7307 4.38467 11.7307 4.38467 11.7307H4.38467C4.38467 11.7307 4.38467 11.7307 4.38467 11.7307H4.38467C4.38467 11.7307 4.38467 11.7307 4.38467 11.7307C4.38467 11.7307 4.38467 11.7307 4.38467 11.7307H4.38467C4.38467 11.7307 4.38467 11.7307 4.38467 11.7307C4.38467 11.7307 4.38467 11.7307 4.38467 11.7307C4.38467 11.7307 4.38467 11.7307 4.38467 11.7307C4.38467 11.7307 4.38467 11.7307 4.38467 11.7307H4.38467C4.38467 11.7307 4.38467 11.7307 4.38467 11.7307C4.38467 11.7307 4.38467 11.7307 4.38467 11.7307H4.38468C4.38468 11.7307 4.38468 11.7307 4.38468 11.7307H4.38468C4.38468 11.7307 4.38468 11.7307 4.38468 11.7307C4.38468 11.7307 4.38468 11.7307 4.38468 11.7307H4.38468C4.38468 11.7307 4.38468 11.7307 4.38468 11.7307C4.38468 11.7307 4.38468 11.7307 4.38468 11.7307H4.38468C4.38468 11.7307 4.38468 11.7307 4.38468 11.7307H4.38468C4.38468 11.7307 4.38468 11.7307 4.38468 11.7307C4.38468 11.7307 4.38468 11.7307 4.38468 11.7307H4.38468C4.38468 11.7307 4.38468 11.7307 4.38468 11.7307C4.38468 11.7307 4.38468 11.7307 4.38468 11.7307C4.38468 11.7307 4.38468 11.7307 4.38468 11.7307C4.38468 11.7307 4.38468 11.7307 4.38468 11.7307H4.38468C4.38468 11.7307 4.38468 11.7307 4.38468 11.7307C4.38468 11.7307 4.38468 11.7307 4.38468 11.7307H4.38469C4.38469 11.7307 4.38469 11.7307 4.38469 11.7307H4.38469C4.38469 11.7307 4.38469 11.7307 4.38469 11.7307C4.38469 11.7307 4.38469 11.7307 4.38469 11.7307H4.38469C4.38469 11.7307 4.38469 11.7307 4.38469 11.7307C4.38469 11.7307 4.38469 11.7307 4.38469 11.7307H4.38469C4.38469 11.7307 4.38469 11.7307 4.38469 11.7307H4.38469C4.38469 11.7307 4.38469 11.7307 4.38469 11.7307C4.38469 11.7307 4.38469 11.7307 4.38469 11.7307H4.38469C4.38469 11.7307 4.38469 11.7307 4.38469 11.7307H4.38469C4.38469 11.7307 4.38469 11.7307 4.38469 11.7307C4.38469 11.7307 4.38469 11.7307 4.38469 11.7307H4.38469C4.38469 11.7307 4.38469 11.7307 4.38469 11.7307C4.38469 11.7307 4.38469 11.7307 4.38469 11.7307H4.3847C4.3847 11.7307 4.3847 11.7307 4.3847 11.7307H4.3847C4.3847 11.7307 4.3847 11.7307 4.3847 11.7307C4.3847 11.7307 4.3847 11.7307 4.3847 11.7307H4.3847C4.3847 11.7307 4.3847 11.7307 4.3847 11.7307C4.3847 11.7307 4.3847 11.7307 4.3847 11.7307C4.3847 11.7307 4.3847 11.7307 4.3847 11.7307C4.3847 11.7307 4.3847 11.7307 4.3847 11.7307H4.3847C4.3847 11.7307 4.3847 11.7307 4.3847 11.7307C4.3847 11.7307 4.3847 11.7307 4.3847 11.7307H4.3847C4.3847 11.7307 4.3847 11.7307 4.3847 11.7307H4.3847C4.3847 11.7307 4.3847 11.7307 4.3847 11.7307C4.3847 11.7307 4.3847 11.7307 4.3847 11.7307H4.3847C4.3847 11.7307 4.3847 11.7307 4.3847 11.7307C4.3847 11.7307 4.3847 11.7307 4.3847 11.7307H4.38471C4.38471 11.7307 4.38471 11.7307 4.38471 11.7307H4.38471C4.38471 11.7307 4.38471 11.7307 4.38471 11.7307C4.38471 11.7307 4.38471 11.7307 4.38471 11.7307H4.38471C4.38471 11.7307 4.38471 11.7307 4.38471 11.7307C4.38471 11.7307 4.38471 11.7307 4.38471 11.7307C4.38471 11.7307 4.38471 11.7307 4.38471 11.7307C4.38471 11.7307 4.38471 11.7307 4.38471 11.7307H4.38471C4.38471 11.7307 4.38471 11.7307 4.38471 11.7307C4.38471 11.7307 4.38471 11.7307 4.38471 11.7307H4.38471C4.38471 11.7307 4.38471 11.7307 4.38471 11.7307H4.38471C4.38471 11.7307 4.38471 11.7307 4.38471 11.7307C4.38471 11.7307 4.38471 11.7307 4.38471 11.7307H4.38471C4.38471 11.7307 4.38471 11.7307 4.38471 11.7307C4.38471 11.7307 4.38471 11.7307 4.38471 11.7307C4.38472 11.7307 4.38472 11.7307 4.38472 11.7307C4.38472 11.7307 4.38472 11.7307 4.38472 11.7307H4.38472C4.38472 11.7307 4.38472 11.7307 4.38472 11.7307C4.38472 11.7307 4.38472 11.7307 4.38472 11.7307H4.38472C4.38472 11.7307 4.38472 11.7307 4.38472 11.7307H4.38472C4.38472 11.7307 4.38472 11.7307 4.38472 11.7307C4.38472 11.7307 4.38472 11.7307 4.38472 11.7307H4.38472C4.38472 11.7307 4.38472 11.7307 4.38472 11.7307C4.38472 11.7307 4.38472 11.7307 4.38472 11.7307H4.38472C4.38472 11.7307 4.38472 11.7307 4.38472 11.7307H4.38472C4.38472 11.7307 4.38472 11.7307 4.38472 11.7307C4.38472 11.7307 4.38472 11.7307 4.38472 11.7307H4.38472C4.38472 11.7307 4.38472 11.7307 4.38472 11.7307C4.38472 11.7307 4.38472 11.7307 4.38472 11.7307C4.38473 11.7307 4.38473 11.7307 4.38473 11.7307C4.38473 11.7307 4.38473 11.7307 4.38473 11.7307H4.38473C4.38473 11.7307 4.38473 11.7307 4.38473 11.7307C4.38473 11.7307 4.38473 11.7307 4.38473 11.7307H4.38473C4.38473 11.7307 4.38473 11.7307 4.38473 11.7307H4.38473C4.38473 11.7307 4.38473 11.7307 4.38473 11.7307C4.38473 11.7307 4.38473 11.7307 4.38473 11.7307H4.38473C4.38473 11.7307 4.38473 11.7307 4.38473 11.7307C4.38473 11.7307 4.38473 11.7307 4.38473 11.7307H4.38473C4.38473 11.7307 4.38473 11.7307 4.38473 11.7307H4.38473C4.38473 11.7307 4.38473 11.7307 4.38473 11.7307C4.38473 11.7307 4.38473 11.7307 4.38473 11.7307H4.38473C4.38473 11.7307 4.38473 11.7307 4.38473 11.7307C4.38473 11.7307 4.38473 11.7307 4.38473 11.7307H4.38474C4.38474 11.7307 4.38474 11.7307 4.38474 11.7307H4.38474C4.38474 11.7307 4.38474 11.7307 4.38474 11.7307C4.38474 11.7307 4.38474 11.7307 4.38474 11.7307H4.38474C4.38474 11.7307 4.38474 11.7307 4.38474 11.7307C4.38474 11.7307 4.38474 11.7307 4.38474 11.7307C4.38474 11.7307 4.38474 11.7307 4.38474 11.7307C4.38474 11.7307 4.38474 11.7307 4.38474 11.7307H4.38474C4.38474 11.7307 4.38474 11.7307 4.38474 11.7307C4.38474 11.7307 4.38474 11.7307 4.38474 11.7307H4.38474C4.38474 11.7307 4.38474 11.7307 4.38474 11.7307H4.38474C4.38474 11.7307 4.38474 11.7307 4.38474 11.7307C4.38474 11.7307 4.38474 11.7307 4.38474 11.7307H4.38474C4.38474 11.7307 4.38474 11.7307 4.38474 11.7307C4.38474 11.7307 4.38474 11.7307 4.38474 11.7307H4.38475C4.38475 11.7307 4.38475 11.7307 4.38475 11.7307H4.38475C4.38475 11.7307 4.38475 11.7307 4.38475 11.7307C4.38475 11.7307 4.38475 11.7307 4.38475 11.7307H4.38475C4.38475 11.7307 4.38475 11.7307 4.38475 11.7307C4.38475 11.7307 4.38475 11.7307 4.38475 11.7307H4.38475C4.38475 11.7307 4.38475 11.7307 4.38475 11.7307H4.38475C4.38475 11.7307 4.38475 11.7307 4.38475 11.7307C4.38475 11.7307 4.38475 11.7307 4.38475 11.7307H4.38475C4.38475 11.7307 4.38475 11.7307 4.38475 11.7307C4.38475 11.7307 4.38475 11.7307 4.38475 11.7307H4.38475C4.38475 11.7307 4.38475 11.7307 4.38475 11.7307H4.38475C4.38475 11.7307 4.38475 11.7307 4.38475 11.7307C4.38475 11.7307 4.38475 11.7307 4.38475 11.7307H4.38476C4.38476 11.7307 4.38476 11.7307 4.38476 11.7307C4.38476 11.7307 4.38476 11.7307 4.38476 11.7307C4.38476 11.7307 4.38476 11.7307 4.38476 11.7307C4.38476 11.7307 4.38476 11.7307 4.38476 11.7307H4.38476C4.38476 11.7307 4.38476 11.7307 4.38476 11.7307C4.38476 11.7307 4.38476 11.7307 4.38476 11.7307H4.38476C4.38476 11.7307 4.38476 11.7307 4.38476 11.7307C4.38476 11.7307 4.38476 11.7307 4.38476 11.7307C4.38476 11.7307 4.38476 11.7307 4.38476 11.7307C4.38476 11.7307 4.38476 11.7307 4.38476 11.7307H4.38476C4.38476 11.7307 4.38476 11.7307 4.38476 11.7307C4.38476 11.7307 4.38476 11.7307 4.38476 11.7307H4.38476C4.38476 11.7307 4.38476 11.7307 4.38476 11.7307C4.38476 11.7307 4.38476 11.7307 4.38476 11.7307C4.38476 11.7307 4.38476 11.7307 4.38476 11.7307C4.38476 11.7307 4.38476 11.7307 4.38476 11.7307H4.38477C4.38477 11.7307 4.38477 11.7307 4.38477 11.7307V8.73073ZM2.88477 8.76923V10.2307H5.88477V8.76923H2.88477ZM3.88477 8.65465V10.3453H6.88477V8.65465H3.88477ZM10.1155 13.2747C9.60824 11.1001 7.90011 9.39189 5.72558 8.88455L5.04395 11.8061C6.10633 12.054 6.94609 12.8937 7.19391 13.9561L10.1155 13.2747ZM8.65469 15.1154H10.345V12.1154H8.65469V15.1154ZM13.2749 8.88436C11.1 9.39146 9.39152 11.0998 8.88422 13.2747L11.8058 13.9561C12.0536 12.8936 12.8936 12.0537 13.9561 11.806L13.2749 8.88436ZM15.1155 10.3452V8.65475H12.1155V10.3452H15.1155ZM13.9562 7.19395C12.8937 6.94617 12.0538 6.10634 11.8059 5.04387L8.88438 5.7254C9.3917 7.90013 11.1001 9.60841 13.2749 10.1156L13.9562 7.19395ZM10.3452 3.88463H8.65468V6.88463H10.3452V3.88463ZM5.72558 10.1154C7.90007 9.60808 9.60819 7.89992 10.1155 5.7254L7.1939 5.04387C6.94607 6.10624 6.10632 6.94602 5.04395 7.19388L5.72558 10.1154Z" fill="#31374A" mask="url(#path-1-inside-1_566_113049)"/>
</svg>
