<svg width="25" height="26" viewBox="0 0 25 26" fill="none" xmlns="http://www.w3.org/2000/svg">
<path d="M5.75 12.5V12.2285L5.57617 12.0199C3.99772 10.1257 5.34463 7.25 7.81025 7.25H8H8.17705L8.33541 7.17082L9.33541 6.67082L9.53525 6.5709L9.64783 6.3779C10.922 4.19364 14.078 4.19364 15.3522 6.3779L15.4647 6.5709L15.6646 6.67082L16.6646 7.17082L16.8229 7.25H17H17.1897C19.6554 7.25 21.0023 10.1257 19.4238 12.0199L19.25 12.2285V12.5V13.5V13.7715L19.4238 13.9801C21.0023 15.8743 19.6554 18.75 17.1897 18.75H17H16.8229L16.6646 18.8292L15.6646 19.3292L15.4788 19.4221L15.3673 19.5973C14.0318 21.696 10.9682 21.696 9.63275 19.5973L9.52122 19.4221L9.33541 19.3292L8.33541 18.8292L8.17705 18.75H8H7.81025C5.34463 18.75 3.99772 15.8743 5.57617 13.9801L5.75 13.7715V13.5V12.5Z" stroke="#31374A" stroke-width="1.5"/>
<circle cx="12.5" cy="13" r="2.25" stroke="#31374A" stroke-width="1.5"/>
</svg>
