<svg width="19" height="20" viewBox="0 0 19 20" fill="none" xmlns="http://www.w3.org/2000/svg">
<path d="M10 10H16" stroke="#F5F5F9" stroke-linecap="round"/>
<path d="M10 5.37117H12.8C12.9105 5.37117 13 5.28163 13 5.17117V4.02813C13 3.91767 13.0895 3.82812 13.2 3.82812H15.5" stroke="#F5F5F9" stroke-linecap="round"/>
<path d="M10 14.6293H12.8C12.9105 14.6293 13 14.7189 13 14.8293V15.9724C13 16.0828 13.0895 16.1724 13.2 16.1724H15" stroke="#F5F5F9" stroke-linecap="round"/>
<path d="M2.5 10.5142C2.5 10.5142 1 10.5142 1 8.45681C1 6.39941 2.5 6.39941 2.5 6.39941" stroke="#F5F5F9" stroke-width="1.5" stroke-linecap="round"/>
<path d="M7 5.62913C7 5.62913 5 5.11479 5 3.57174C5 2.0287 6 1 7.5 1C9 1 9.5 2.54304 9.5 2.54304V17.457C9.5 17.457 9 19 7.5 19C6 19 5 17.9713 5 16.4283C5 14.8852 7 14.3709 7 14.3709" stroke="#F5F5F9" stroke-width="1.5" stroke-linecap="round"/>
<path d="M5 1.77051C4.5 1.77051 3.5 1.77051 3 2.28486C2.5 2.79921 2 3.31355 2 4.34225C2 5.37095 2.5 6.39856 4 6.91399M7 11.5442C6.5 10.0012 4.5 9.48683 3.5 10.0012C2.5 10.5155 1.5 11.5442 1.5 13.6016C1.5 15.659 2.35394 16.9304 3.5 17.7164C4.64606 18.5024 5 18.2307 5 18.2307" stroke="#F5F5F9" stroke-width="1.5" stroke-linecap="round"/>
<ellipse cx="16.5" cy="3.82771" rx="1.5" ry="1.54304" fill="#F5F5F9"/>
<ellipse cx="1.5" cy="1.54304" rx="1.5" ry="1.54304" transform="matrix(1 0 0 -1 15 17.7153)" fill="#F5F5F9"/>
<ellipse cx="17.5" cy="10.0001" rx="1.5" ry="1.54304" fill="#F5F5F9"/>
</svg>
