<svg width="19" height="21" viewBox="0 0 19 21" fill="none" xmlns="http://www.w3.org/2000/svg">
<path d="M10.55 15.5V15.2285L10.3762 15.0199C9.67135 14.1741 10.2728 12.89 11.3737 12.89H11.48H11.6571L11.8154 12.8108L12.3754 12.5308L12.5753 12.4309L12.6878 12.2379C13.274 11.233 14.726 11.233 15.3122 12.2379L15.4247 12.4309L15.6246 12.5308L16.1846 12.8108L16.3429 12.89H16.52H16.6263C17.7272 12.89 18.3287 14.1741 17.6238 15.0199L17.45 15.2285V15.5V16.06V16.3315L17.6238 16.5401C18.3287 17.3859 17.7272 18.67 16.6263 18.67H16.52H16.3429L16.1846 18.7492L15.6246 19.0292L15.4388 19.1221L15.3273 19.2973C14.7091 20.2688 13.2909 20.2688 12.6727 19.2973L12.5612 19.1221L12.3754 19.0292L11.8154 18.7492L11.6571 18.67H11.48H11.3737C10.2728 18.67 9.67135 17.3859 10.3762 16.5401L10.55 16.3315V16.06V15.5Z" stroke="#F5F5F9" stroke-width="1.5"/>
<ellipse cx="14.0003" cy="15.7801" rx="1.68" ry="1.68" fill="#F5F5F9"/>
<path d="M14 9.5V3.5C14 2.94772 13.5523 2.5 13 2.5H2C1.44772 2.5 1 2.94772 1 3.5V17C1 17.5523 1.44772 18 2 18H8" stroke="#F5F5F9" stroke-width="1.5" stroke-linecap="round"/>
<rect x="3" y="4.5" width="4" height="4" rx="1" fill="#F5F5F9"/>
<rect x="3" y="9.5" width="4" height="4" rx="1" fill="#F5F5F9"/>
<rect x="8" y="4.5" width="4" height="4" rx="1" fill="#F5F5F9"/>
</svg>
