<svg width="21" height="21" viewBox="0 0 21 21" fill="none" xmlns="http://www.w3.org/2000/svg">
<path d="M9.075 1.00266C8.4337 1.01135 8.04871 1.04847 7.73742 1.20709C7.37991 1.38925 7.08925 1.67991 6.90709 2.03742C6.74847 2.34871 6.71135 2.7337 6.70266 3.375M17.625 1.00266C18.2663 1.01135 18.6513 1.04847 18.9626 1.20709C19.3201 1.38925 19.6108 1.67991 19.7929 2.03742C19.9515 2.34871 19.9887 2.7337 19.9973 3.37499M19.9973 11.925C19.9887 12.5663 19.9515 12.9513 19.7929 13.2626C19.6108 13.6201 19.3201 13.9108 18.9626 14.0929C18.6513 14.2515 18.2663 14.2887 17.625 14.2973M20 6.69999V8.59999M12.4 1H14.3M4.04 20H11.26C12.3241 20 12.8561 20 13.2626 19.7929C13.6201 19.6108 13.9108 19.3201 14.0929 18.9626C14.3 18.5562 14.3 18.0241 14.3 16.96V9.74C14.3 8.6759 14.3 8.14385 14.0929 7.73742C13.9108 7.37991 13.6201 7.08925 13.2626 6.90709C12.8561 6.7 12.3241 6.7 11.26 6.7H4.04C2.9759 6.7 2.44385 6.7 2.03742 6.90709C1.67991 7.08925 1.38925 7.37991 1.20709 7.73742C1 8.14385 1 8.6759 1 9.74V16.96C1 18.0241 1 18.5562 1.20709 18.9626C1.38925 19.3201 1.67991 19.6108 2.03742 19.7929C2.44385 20 2.9759 20 4.04 20Z" stroke="#31374A" stroke-width="1.5" stroke-linecap="round" stroke-linejoin="round"/>
</svg>
