<svg width="19" height="21" viewBox="0 0 19 21" fill="none" xmlns="http://www.w3.org/2000/svg">
<path d="M10.55 15V14.7285L10.3762 14.5199C9.67135 13.6741 10.2728 12.39 11.3737 12.39H11.48H11.6571L11.8154 12.3108L12.3754 12.0308L12.5753 11.9309L12.6878 11.7379C13.274 10.733 14.726 10.733 15.3122 11.7379L15.4247 11.9309L15.6246 12.0308L16.1846 12.3108L16.3429 12.39H16.52H16.6263C17.7272 12.39 18.3287 13.6741 17.6238 14.5199L17.45 14.7285V15V15.56V15.8315L17.6238 16.0401C18.3287 16.8859 17.7272 18.17 16.6263 18.17H16.52H16.3429L16.1846 18.2492L15.6246 18.5292L15.4388 18.6221L15.3273 18.7973C14.7091 19.7688 13.2909 19.7688 12.6727 18.7973L12.5612 18.6221L12.3754 18.5292L11.8154 18.2492L11.6571 18.17H11.48H11.3737C10.2728 18.17 9.67135 16.8859 10.3762 16.0401L10.55 15.8315V15.56V15Z" stroke="#31374A" stroke-width="1.5"/>
<ellipse cx="14.0003" cy="15.2801" rx="1.68" ry="1.68" fill="#31374A"/>
<path d="M14 9V3C14 2.44772 13.5523 2 13 2H2C1.44772 2 1 2.44772 1 3V16.5C1 17.0523 1.44772 17.5 2 17.5H8" stroke="#31374A" stroke-width="1.5" stroke-linecap="round"/>
<rect x="3" y="4" width="4" height="4" rx="1" fill="#31374A"/>
<rect x="3" y="9" width="4" height="4" rx="1" fill="#31374A"/>
<rect x="8" y="4" width="4" height="4" rx="1" fill="#31374A"/>
</svg>
