<svg width="19" height="20" viewBox="0 0 19 20" fill="none" xmlns="http://www.w3.org/2000/svg">
<path d="M9.0742 18.2996L1.5742 14.7702C1.22371 14.6053 1 14.2528 1 13.8654V5.81516C1 5.66855 1.15251 5.57177 1.28516 5.63419L9.0742 9.29963C9.34388 9.42653 9.65612 9.42653 9.9258 9.29962L17.7148 5.63419C17.8475 5.57177 18 5.66855 18 5.81516V13.8654C18 14.2528 17.7763 14.6053 17.4258 14.7702L9.9258 18.2996C9.65612 18.4265 9.34388 18.4265 9.0742 18.2996Z" stroke="#31374A" stroke-width="1.5" stroke-linecap="round"/>
<path d="M9.5 18.5V9" stroke="#31374A" stroke-width="1.5"/>
<path d="M1 7.5V5.63461C1 5.24724 1.22371 4.89472 1.5742 4.72979L9.0742 1.20038C9.34388 1.07347 9.65612 1.07347 9.9258 1.20038L17.4258 4.72979C17.7763 4.89472 18 5.24724 18 5.63461V8.5" stroke="#31374A" stroke-width="1.5" stroke-linecap="round"/>
</svg>
