<svg width="21" height="21" viewBox="0 0 21 21" fill="none" xmlns="http://www.w3.org/2000/svg">
<path d="M15.5766 18.2396L15.5768 18.5461C15.5773 19.0987 15.1294 19.5469 14.5768 19.5469H2C1.44772 19.5469 1 19.0992 1 18.5469V2C1 1.44772 1.44772 1 2 1H14.5769C15.1293 1 15.5771 1.44789 15.5769 2.00028L15.5766 3.20347" stroke="#F5F5F9" stroke-width="1.5" stroke-linecap="round"/>
<path d="M4.96387 4.08887H10.2707" stroke="#F5F5F9" stroke-linecap="round"/>
<path d="M4.96387 8.51123H10.2707" stroke="#F5F5F9" stroke-linecap="round"/>
<path d="M4.96387 12.9336H7.6173" stroke="#F5F5F9" stroke-linecap="round"/>
<path d="M12.0398 12.0492L15.8672 6.69079C16.1935 6.23397 16.8318 6.13519 17.281 6.47203L19.2184 7.92513C19.653 8.25107 19.7479 8.86433 19.4322 9.30637L15.5777 14.7027M12.0398 12.0492L11.1915 16.2906C11.1759 16.3685 11.2529 16.4326 11.3267 16.4031L15.5777 14.7027M12.0398 12.0492L15.5777 14.7027" stroke="#F5F5F9" stroke-linecap="round"/>
</svg>
