<svg width="19" height="20" viewBox="0 0 19 20" fill="none" xmlns="http://www.w3.org/2000/svg">
<path d="M7.5 4C7.5 4 7.5 1.5 9.5 1.5C11.5 1.5 11.5 4 11.5 4" stroke="#31374A" stroke-width="1.5" stroke-linecap="round"/>
<path d="M9.5 19C6.31361 19 2.49265 18.3654 1.07009 18.1073C0.882722 18.0733 0.815298 17.7677 0.948209 17.6314C1.33304 17.2365 1.91652 16.4587 2.5 15C3.5 12.5 3 4 9.5 4C16 4 15.5 12.5 16.5 15C17.0835 16.4587 17.667 17.2365 18.0518 17.6314C18.1847 17.7677 18.1173 18.0733 17.9299 18.1073C16.5074 18.3654 12.6864 19 9.5 19Z" stroke="#31374A" stroke-width="1.5" stroke-linecap="round"/>
</svg>
