<svg width="19" height="21" viewBox="0 0 19 21" fill="none" xmlns="http://www.w3.org/2000/svg">
<path d="M4.4 9.97222V12.6111M4.4 9.97222V3.63889C4.4 2.76444 5.16112 2.05556 6.1 2.05556C7.03888 2.05556 7.8 2.76444 7.8 3.63889M4.4 9.97222C4.4 9.09777 3.63888 8.38889 2.7 8.38889C1.76112 8.38889 1 9.09777 1 9.97222V12.0833C1 16.4556 4.80558 20 9.5 20C14.1944 20 18 16.4556 18 12.0833V6.80556C18 5.93111 17.2389 5.22222 16.3 5.22222C15.3611 5.22222 14.6 5.9311 14.6 6.80556M7.8 3.63889V9.44444M7.8 3.63889V2.58333C7.8 1.70888 8.56112 1 9.5 1C10.4389 1 11.2 1.70888 11.2 2.58333V3.63889M11.2 3.63889V9.44444M11.2 3.63889C11.2 2.76444 11.9611 2.05556 12.9 2.05556C13.8389 2.05556 14.6 2.76444 14.6 3.63889V6.80556M14.6 6.80556V9.44444" stroke="#F5F5F9" stroke-width="1.5" stroke-linecap="round" stroke-linejoin="round"/>
</svg>
