<svg width="12" height="12" viewBox="0 0 12 12" fill="none" xmlns="http://www.w3.org/2000/svg">
<path d="M0.5 2.09159C0.5 1.68459 0.666124 1.40486 0.912793 1.29256C1.63805 0.962347 3.16092 0.5 6 0.5C8.83908 0.5 10.362 0.962347 11.0872 1.29256C11.3339 1.40486 11.5 1.68459 11.5 2.09158V9.18539C11.5 9.6306 11.3068 10.0038 10.9866 10.1932C10.0932 10.7215 8.37415 11.5 6 11.5C3.62585 11.5 1.90675 10.7215 1.0134 10.1932C0.693187 10.0038 0.5 9.6306 0.5 9.18539V2.09159Z" stroke="#F5F5F9"/>
<path d="M0.630859 1.89478C0.630859 1.89478 2.20981 3.47372 5.99928 3.47372C9.78875 3.47372 11.3677 1.89478 11.3677 1.89478" stroke="#F5F5F9"/>
<path d="M0.630859 4.42114C0.630859 4.42114 2.20981 6.00009 5.99928 6.00009C9.78875 6.00009 11.3677 4.42114 11.3677 4.42114" stroke="#F5F5F9"/>
<path d="M0.630859 6.94727C0.630859 6.94727 2.20981 8.52621 5.99928 8.52621C9.78875 8.52621 11.3677 6.94727 11.3677 6.94727" stroke="#F5F5F9"/>
</svg>
