<svg width="12" height="12" viewBox="0 0 12 12" fill="none" xmlns="http://www.w3.org/2000/svg">
<path d="M6.60715 1.70738L6.32656 1.31275C6.01675 0.877009 5.41899 0.762045 4.96965 1.05178L4.3302 1.4641C3.86971 1.76103 3.73392 2.37323 4.02567 2.83701L6.33446 6.50716" stroke="#F5F5F9" stroke-width="1.5" stroke-linecap="round"/>
<path d="M11 11.2442V1.75196C11 1.19967 10.5523 0.751956 10 0.751956L9.29883 0.751955C8.74655 0.751954 8.29883 1.19967 8.29883 1.75195V11.2442" stroke="#F5F5F9" stroke-width="1.5" stroke-linecap="round"/>
<path d="M4.49998 7.50002L1.39055 5.97053C0.897396 5.72796 0.69242 5.13287 0.931577 4.63805L1.30733 3.86062C1.52286 3.41467 2.07351 3.2482 2.5 3.50003V3.50003" stroke="#F5F5F9" stroke-width="1.5" stroke-linecap="round"/>
<path d="M3 8.5H2C1.44772 8.5 1 8.94772 1 9.5V10C1 10.5523 1.44772 11 2 11H6.5" stroke="#F5F5F9" stroke-width="1.5" stroke-linecap="round"/>
</svg>
